<svg data-v-423bf9ae="" xmlns="http://www.w3.org/2000/svg" viewBox="0 0 553.8460948456268 186" class="iconAboveSlogan"><!----><!----><!----><g data-v-423bf9ae="" id="d4798ded-b675-4abe-9422-a1a32b8c5ff8" fill="white" transform="matrix(4.569687366264075,0,0,4.569687366264075,-5.757805679735611,79.46610629008056)"><path d="M8.46 16.24L8.69 16.41L8.69 16.41Q8.29 17.25 7.71 17.72L7.71 17.72L7.71 17.72Q7.14 18.20 6.54 18.20L6.54 18.20L6.54 18.20Q6.03 18.20 5.71 18.01L5.71 18.01L5.71 18.01Q5.39 17.82 5.14 17.46L5.14 17.46L5.14 17.46Q4.89 17.11 4.40 16.27L4.40 16.27L3.14 14.14L2.56 14.83L2.56 17.81L1.26 18.28L1.26 8.37L2.56 7.87L2.56 13.80L7.36 8.12L8.22 8.19L3.99 13.13L5.98 16.46L5.98 16.46Q6.26 16.97 6.48 17.14L6.48 17.14L6.48 17.14Q6.71 17.32 7.06 17.30L7.06 17.30L7.06 17.30Q7.41 17.30 7.79 17.00L7.79 17.00L7.79 17.00Q8.18 16.70 8.46 16.24L8.46 16.24ZM13.12 11.09L13.12 11.09Q13.80 11.09 14.41 11.38L14.41 11.38L14.41 11.38Q15.02 11.68 15.30 12.28L15.30 12.28L14.29 12.82L14.29 12.82Q14.07 12.50 13.68 12.24L13.68 12.24L13.68 12.24Q13.29 11.98 12.84 11.98L12.84 11.98L12.84 11.98Q12.12 11.98 11.59 12.36L11.59 12.36L11.59 12.36Q11.06 12.73 10.78 13.36L10.78 13.36L10.78 13.36Q10.50 13.99 10.50 14.76L10.50 14.76L10.50 14.76Q10.50 15.86 10.88 16.55L10.88 16.55L10.88 16.55Q11.26 17.25 12.07 17.25L12.07 17.25L12.07 17.25Q13.22 17.25 13.65 16.32L13.65 16.32L13.65 16.32Q14.08 15.40 14.08 14.31L14.08 14.31L14.08 13.68L15.32 13.16L15.32 16.84L15.32 16.84Q15.32 17.02 15.41 17.19L15.41 17.19L15.41 17.19Q15.51 17.36 15.71 17.36L15.71 17.36L15.71 17.36Q16.11 17.36 16.45 16.80L16.45 16.80L16.66 17.02L16.66 17.02Q16.49 17.50 16.07 17.83L16.07 17.83L16.07 17.83Q15.65 18.16 15.23 18.16L15.23 18.16L15.23 18.16Q14.63 18.16 14.34 17.71L14.34 17.71L14.34 17.71Q14.06 17.26 14.06 16.52L14.06 16.52L14.03 16.52L14.03 16.52Q13.68 17.26 13.08 17.76L13.08 17.76L13.08 17.76Q12.49 18.26 11.83 18.26L11.83 18.26L11.83 18.26Q10.64 18.26 10.03 17.44L10.03 17.44L10.03 17.44Q9.42 16.62 9.42 15.25L9.42 15.25L9.42 15.25Q9.42 14.15 9.91 13.20L9.91 13.20L9.91 13.20Q10.40 12.24 11.25 11.66L11.25 11.66L11.25 11.66Q12.10 11.09 13.12 11.09L13.12 11.09ZM25.07 10.96L25.07 10.96Q25.49 10.96 25.73 11.24L25.73 11.24L25.73 11.24Q25.96 11.51 25.96 12.15L25.96 12.15L25.96 16.91L25.96 16.91Q25.96 17.12 26.05 17.26L26.05 17.26L26.05 17.26Q26.15 17.39 26.32 17.39L26.32 17.39L26.32 17.39Q26.49 17.39 26.68 17.25L26.68 17.25L26.68 17.25Q26.88 17.11 27.06 16.84L27.06 16.84L27.29 17.05L27.29 17.05Q26.99 17.68 26.59 17.93L26.59 17.93L26.59 17.93Q26.18 18.17 26.43 18.17L26.43 18.17L26.43 18.17Q26.68 18.16 25.83 18.16L25.83 18.16L25.83 18.16Q24.67 18.16 24.67 16.74L24.67 16.74L24.67 12.88L24.67 12.88Q24.67 12.74 24.60 12.64L24.60 12.64L24.60 12.64Q24.53 12.54 24.42 12.54L24.42 12.54L24.42 12.54Q24.11 12.54 23.74 13.22L23.74 13.22L23.74 13.22Q23.38 13.89 23.13 15.11L23.13 15.11L23.13 15.11Q22.88 16.34 22.88 17.92L22.88 17.92L21.60 18.28L21.60 12.88L21.60 12.88Q21.60 12.74 21.53 12.64L21.53 12.64L21.53 12.64Q21.46 12.54 21.36 12.54L21.36 12.54L21.36 12.54Q21.08 12.54 20.71 13.22L20.71 13.22L20.71 13.22Q20.34 13.90 20.07 15.13L20.07 15.13L20.07 15.13Q19.80 16.35 19.80 17.92L19.80 17.92L18.59 18.28L18.59 12.29L18.59 12.29Q18.59 12.05 18.47 11.91L18.47 11.91L18.47 11.91Q18.35 11.77 18.17 11.77L18.17 11.77L18.17 11.77Q17.82 11.77 17.46 12.38L17.46 12.38L17.23 12.15L17.23 12.15Q17.53 11.52 17.93 11.25L17.93 11.25L17.93 11.25Q18.34 10.98 18.43 10.97L18.43 10.97L18.43 10.97Q18.52 10.96 18.70 10.96L18.70 10.96L18.70 10.96Q19.38 10.96 19.61 11.25L19.61 11.25L19.61 11.25Q19.85 11.54 19.85 12.01L19.85 12.01L19.85 14.35L19.89 14.35L19.89 14.35Q20.24 12.82 20.84 11.89L20.84 11.89L20.84 11.89Q21.43 10.96 22.02 10.96L22.02 10.96L22.02 10.96Q22.46 10.96 22.67 11.23L22.67 11.23L22.67 11.23Q22.89 11.49 22.89 12.15L22.89 12.15L22.89 14.35L22.97 14.35L22.97 14.35Q23.32 12.82 23.91 11.89L23.91 11.89L23.91 11.89Q24.49 10.96 25.07 10.96L25.07 10.96ZM32.07 11.09L32.07 11.09Q32.76 11.09 33.37 11.38L33.37 11.38L33.37 11.38Q33.98 11.68 34.26 12.28L34.26 12.28L33.25 12.82L33.25 12.82Q33.03 12.50 32.63 12.24L32.63 12.24L32.63 12.24Q32.24 11.98 31.79 11.98L31.79 11.98L31.79 11.98Q31.08 11.98 30.55 12.36L30.55 12.36L30.55 12.36Q30.02 12.73 29.74 13.36L29.74 13.36L29.74 13.36Q29.46 13.99 29.46 14.76L29.46 14.76L29.46 14.76Q29.46 15.86 29.83 16.55L29.83 16.55L29.83 16.55Q30.21 17.25 31.02 17.25L31.02 17.25L31.02 17.25Q32.17 17.25 32.61 16.32L32.61 16.32L32.61 16.32Q33.04 15.40 33.04 14.31L33.04 14.31L33.04 13.68L34.27 13.16L34.27 16.84L34.27 16.84Q34.27 17.02 34.37 17.19L34.37 17.19L34.37 17.19Q34.47 17.36 34.66 17.36L34.66 17.36L34.66 17.36Q35.07 17.36 35.41 16.80L35.41 16.80L35.62 17.02L35.62 17.02Q35.45 17.50 35.03 17.83L35.03 17.83L35.03 17.83Q34.61 18.16 34.19 18.16L34.19 18.16L34.19 18.16Q33.59 18.16 33.30 17.71L33.30 17.71L33.30 17.71Q33.01 17.26 33.01 16.52L33.01 16.52L32.98 16.52L32.98 16.52Q32.63 17.26 32.04 17.76L32.04 17.76L32.04 17.76Q31.44 18.26 30.79 18.26L30.79 18.26L30.79 18.26Q29.60 18.26 28.99 17.44L28.99 17.44L28.99 17.44Q28.38 16.62 28.38 15.25L28.38 15.25L28.38 15.25Q28.38 14.15 28.87 13.20L28.87 13.20L28.87 13.20Q29.36 12.24 30.20 11.66L30.20 11.66L30.20 11.66Q31.05 11.09 32.07 11.09L32.07 11.09ZM38.44 7.36L38.44 11.09L40.39 11.09L39.97 11.98L38.44 11.98L38.44 16.91L38.44 16.91Q38.44 17.12 38.57 17.26L38.57 17.26L38.57 17.26Q38.70 17.39 38.91 17.39L38.91 17.39L38.91 17.39Q39.20 17.39 39.72 16.84L39.72 16.84L39.91 17.05L39.91 17.05Q39.65 17.58 39.28 17.84L39.28 17.84L39.28 17.84Q38.91 18.10 38.58 18.17L38.58 18.17L38.58 18.17Q38.25 18.23 38.25 18.17L38.25 18.17L38.25 18.17Q38.26 18.17 38.29 18.17L38.29 18.17L38.29 18.17Q38.32 18.16 38.37 18.16L38.37 18.16L38.37 18.16Q37.14 18.16 37.14 16.74L37.14 16.74L37.14 11.98L36.09 11.98L36.53 11.09L37.14 11.09L37.14 7.87L38.44 7.36ZM41.45 8.72L41.93 11.80L42.53 11.55L42.97 8.12L41.45 8.72ZM46.33 10.51L46.33 10.51Q46.80 10.51 47.02 10.68L47.02 10.68L47.02 10.68Q47.24 10.85 47.24 11.20L47.24 11.20L47.24 11.20Q47.24 11.58 47.09 11.87L47.09 11.87L47.09 11.87Q46.94 12.17 46.77 12.38L46.77 12.38L46.77 12.38Q46.61 12.59 46.55 12.67L46.55 12.67L46.55 12.67Q46.72 12.95 47.18 13.33L47.18 13.33L47.18 13.33Q47.56 13.65 47.78 13.90L47.78 13.90L47.78 13.90Q48.01 14.15 48.17 14.58L48.17 14.58L48.17 14.58Q48.33 15.01 48.33 15.62L48.33 15.62L48.33 15.62Q48.33 16.35 48.00 16.95L48.00 16.95L48.00 16.95Q47.67 17.56 47.09 17.91L47.09 17.91L47.09 17.91Q46.51 18.26 45.78 18.26L45.78 18.26L45.78 18.26Q45.33 18.26 44.80 18.07L44.80 18.07L44.80 18.07Q44.27 17.88 44.02 17.53L44.02 17.53L44.95 16.28L44.95 16.28Q45.29 16.72 45.66 17.02L45.66 17.02L45.66 17.02Q46.03 17.33 46.47 17.33L46.47 17.33L46.47 17.33Q47.07 17.33 47.50 16.93L47.50 16.93L47.50 16.93Q47.92 16.53 47.92 15.97L47.92 15.97L47.92 15.97Q47.92 15.53 47.55 15.09L47.55 15.09L47.55 15.09Q47.18 14.64 46.51 14.04L46.51 14.04L46.51 14.04Q46.42 13.97 46.19 13.76L46.19 13.76L46.19 13.76Q45.95 13.54 45.84 13.40L45.84 13.40L44.86 14.84L44.41 14.55L45.53 12.99L45.53 12.99Q45.33 12.45 45.33 11.91L45.33 11.91L45.33 11.91Q45.33 11.31 45.60 10.91L45.60 10.91L45.60 10.91Q45.86 10.51 46.33 10.51L46.33 10.51ZM46.33 11.06L46.33 11.06Q46.14 11.06 46.10 11.16L46.10 11.16L46.10 11.16Q46.05 11.26 46.05 11.45L46.05 11.45L46.05 11.45Q46.05 11.70 46.12 11.89L46.12 11.89L46.12 11.89Q46.19 12.07 46.21 12.14L46.21 12.14L46.21 12.14Q46.37 12.04 46.50 11.78L46.50 11.78L46.50 11.78Q46.63 11.52 46.63 11.34L46.63 11.34L46.63 11.34Q46.63 11.21 46.56 11.14L46.56 11.14L46.56 11.14Q46.48 11.06 46.33 11.06L46.33 11.06ZM57.43 8.11L57.43 8.11Q59.11 8.11 59.99 9.05L59.99 9.05L59.99 9.05Q60.87 10.00 60.87 11.61L60.87 11.61L60.87 11.61Q60.87 13.38 59.76 14.88L59.76 14.88L59.76 14.88Q58.65 16.37 56.89 17.26L56.89 17.26L56.89 17.26Q55.13 18.16 53.30 18.27L53.30 18.27L53.30 10.51L54.60 10.04L54.60 17.51L54.60 17.51Q55.99 17.15 57.06 16.33L57.06 16.33L57.06 16.33Q58.14 15.51 58.75 14.35L58.75 14.35L58.75 14.35Q59.36 13.19 59.36 11.84L59.36 11.84L59.36 11.84Q59.36 11.07 59.09 10.42L59.09 10.42L59.09 10.42Q58.83 9.76 58.26 9.34L58.26 9.34L58.26 9.34Q57.69 8.92 56.83 8.92L56.83 8.92L56.83 8.92Q55.72 8.92 54.63 9.35L54.63 9.35L54.63 9.35Q53.55 9.79 52.68 10.51L52.68 10.51L52.40 10.22L52.40 10.22Q53.30 9.34 54.75 8.72L54.75 8.72L54.75 8.72Q56.21 8.11 57.43 8.11L57.43 8.11ZM65.16 12.80L65.16 12.80Q64.53 13.45 64.07 14.51L64.07 14.51L64.07 14.51Q63.62 15.57 63.62 16.44L63.62 16.44L63.62 16.44Q63.62 17.19 63.95 17.70L63.95 17.70L63.95 17.70Q64.27 18.21 65.00 18.21L65.00 18.21L65.00 18.21Q65.59 18.21 66.13 17.91L66.13 17.91L66.13 17.91Q66.67 17.60 67.05 17.11L67.05 17.11L66.89 16.90L66.89 16.90Q66.46 17.19 66.04 17.19L66.04 17.19L66.04 17.19Q65.38 17.19 65.04 16.73L65.04 16.73L65.04 16.73Q64.71 16.27 64.71 15.61L64.71 15.61L64.71 15.61Q64.71 14.55 65.25 13.59L65.25 13.59L65.25 13.59Q65.80 12.64 66.64 11.75L66.64 11.75L66.42 11.55L66.42 11.55Q65.44 12.17 64.62 12.17L64.62 12.17L64.62 12.17Q64.15 12.17 63.76 11.74L63.76 11.74L63.76 11.74Q63.36 11.31 63.15 10.79L63.15 10.79L62.02 12.07L62.02 12.07Q62.12 12.35 62.55 12.71L62.55 12.71L61.61 14.67L62.13 14.91L63.04 12.91L63.04 12.91Q63.28 13.01 63.43 13.03L63.43 13.03L63.43 13.03Q63.59 13.06 63.85 13.06L63.85 13.06L63.85 13.06Q64.54 13.06 65.11 12.75L65.11 12.75L65.16 12.80ZM72.07 10.96L72.07 10.96Q72.83 10.96 73.33 11.37L73.33 11.37L73.33 11.37Q73.84 11.77 73.84 12.57L73.84 12.57L73.84 12.57Q73.84 13.22 73.14 14.01L73.14 14.01L73.14 14.01Q72.45 14.80 71.52 15.46L71.52 15.46L71.52 15.46Q70.59 16.11 69.93 16.38L69.93 16.38L69.93 16.38Q70.28 16.94 70.73 17.16L70.73 17.16L70.73 17.16Q71.18 17.37 71.78 17.37L71.78 17.37L71.78 17.37Q72.45 17.37 73.11 17.03L73.11 17.03L73.11 17.03Q73.78 16.69 74.21 16.14L74.21 16.14L74.38 16.44L74.38 16.44Q73.70 17.32 72.93 17.79L72.93 17.79L72.93 17.79Q72.16 18.26 71.04 18.26L71.04 18.26L71.04 18.26Q70.18 18.26 69.51 17.84L69.51 17.84L69.51 17.84Q68.84 17.42 68.46 16.71L68.46 16.71L68.46 16.71Q68.08 16.00 68.08 15.18L68.08 15.18L68.08 15.18Q68.08 14.14 68.64 13.16L68.64 13.16L68.64 13.16Q69.20 12.18 70.13 11.57L70.13 11.57L70.13 11.57Q71.05 10.96 72.07 10.96L72.07 10.96ZM71.34 11.84L71.34 11.84Q70.73 11.84 70.25 12.24L70.25 12.24L70.25 12.24Q69.76 12.63 69.49 13.24L69.49 13.24L69.49 13.24Q69.22 13.86 69.22 14.52L69.22 14.52L69.22 14.52Q69.22 15.39 69.62 16.00L69.62 16.00L69.62 16.00Q70.21 15.74 70.90 15.20L70.90 15.20L70.90 15.20Q71.58 14.66 72.06 14.03L72.06 14.03L72.06 14.03Q72.53 13.40 72.53 12.88L72.53 12.88L72.53 12.88Q72.53 11.84 71.34 11.84L71.34 11.84ZM79.14 11.09L79.14 11.09Q79.83 11.09 80.44 11.38L80.44 11.38L80.44 11.38Q81.05 11.68 81.33 12.28L81.33 12.28L80.32 12.82L80.32 12.82Q80.09 12.50 79.70 12.24L79.70 12.24L79.70 12.24Q79.31 11.98 78.86 11.98L78.86 11.98L78.86 11.98Q78.15 11.98 77.62 12.36L77.62 12.36L77.62 12.36Q77.08 12.73 76.80 13.36L76.80 13.36L76.80 13.36Q76.52 13.99 76.52 14.76L76.52 14.76L76.52 14.76Q76.52 15.86 76.90 16.55L76.90 16.55L76.90 16.55Q77.28 17.25 78.09 17.25L78.09 17.25L78.09 17.25Q79.24 17.25 79.67 16.32L79.67 16.32L79.67 16.32Q80.11 15.40 80.11 14.31L80.11 14.31L80.11 13.68L81.34 13.16L81.34 16.84L81.34 16.84Q81.34 17.02 81.44 17.19L81.44 17.19L81.44 17.19Q81.54 17.36 81.73 17.36L81.73 17.36L81.73 17.36Q82.14 17.36 82.47 16.80L82.47 16.80L82.68 17.02L82.68 17.02Q82.52 17.50 82.10 17.83L82.10 17.83L82.10 17.83Q81.68 18.16 81.26 18.16L81.26 18.16L81.26 18.16Q80.65 18.16 80.37 17.71L80.37 17.71L80.37 17.71Q80.08 17.26 80.08 16.52L80.08 16.52L80.05 16.52L80.05 16.52Q79.70 17.26 79.11 17.76L79.11 17.76L79.11 17.76Q78.51 18.26 77.85 18.26L77.85 18.26L77.85 18.26Q76.66 18.26 76.05 17.44L76.05 17.44L76.05 17.44Q75.45 16.62 75.45 15.25L75.45 15.25L75.45 15.25Q75.45 14.15 75.94 13.20L75.94 13.20L75.94 13.20Q76.43 12.24 77.27 11.66L77.27 11.66L77.27 11.66Q78.12 11.09 79.14 11.09L79.14 11.09ZM91.10 10.96L91.10 10.96Q91.52 10.96 91.75 11.24L91.75 11.24L91.75 11.24Q91.98 11.51 91.98 12.15L91.98 12.15L91.98 16.91L91.98 16.91Q91.98 17.12 92.08 17.26L92.08 17.26L92.08 17.26Q92.18 17.39 92.34 17.39L92.34 17.39L92.34 17.39Q92.51 17.39 92.71 17.25L92.71 17.25L92.71 17.25Q92.90 17.11 93.09 16.84L93.09 16.84L93.31 17.05L93.31 17.05Q93.02 17.68 92.61 17.93L92.61 17.93L92.61 17.93Q92.20 18.17 92.46 18.17L92.46 18.17L92.46 18.17Q92.71 18.16 91.85 18.16L91.85 18.16L91.85 18.16Q90.69 18.16 90.69 16.74L90.69 16.74L90.69 12.88L90.69 12.88Q90.69 12.74 90.62 12.64L90.62 12.64L90.62 12.64Q90.55 12.54 90.44 12.54L90.44 12.54L90.44 12.54Q90.13 12.54 89.77 13.22L89.77 13.22L89.77 13.22Q89.40 13.89 89.15 15.11L89.15 15.11L89.15 15.11Q88.90 16.34 88.90 17.92L88.90 17.92L87.63 18.28L87.63 12.88L87.63 12.88Q87.63 12.74 87.56 12.64L87.56 12.64L87.56 12.64Q87.49 12.54 87.39 12.54L87.39 12.54L87.39 12.54Q87.11 12.54 86.74 13.22L86.74 13.22L86.74 13.22Q86.37 13.90 86.09 15.13L86.09 15.13L86.09 15.13Q85.82 16.35 85.82 17.92L85.82 17.92L84.62 18.28L84.62 12.29L84.62 12.29Q84.62 12.05 84.50 11.91L84.50 11.91L84.50 11.91Q84.38 11.77 84.20 11.77L84.20 11.77L84.20 11.77Q83.85 11.77 83.48 12.38L83.48 12.38L83.26 12.15L83.26 12.15Q83.55 11.52 83.96 11.25L83.96 11.25L83.96 11.25Q84.36 10.98 84.45 10.97L84.45 10.97L84.45 10.97Q84.55 10.96 84.73 10.96L84.73 10.96L84.73 10.96Q85.40 10.96 85.64 11.25L85.64 11.25L85.64 11.25Q85.88 11.54 85.88 12.01L85.88 12.01L85.88 14.35L85.92 14.35L85.92 14.35Q86.27 12.82 86.86 11.89L86.86 11.89L86.86 11.89Q87.46 10.96 88.05 10.96L88.05 10.96L88.05 10.96Q88.48 10.96 88.70 11.23L88.70 11.23L88.70 11.23Q88.91 11.49 88.91 12.15L88.91 12.15L88.91 14.35L89.00 14.35L89.00 14.35Q89.35 12.82 89.93 11.89L89.93 11.89L89.93 11.89Q90.51 10.96 91.10 10.96L91.10 10.96ZM96.26 5.15L96.26 16.91L96.26 16.91Q96.26 17.08 96.36 17.23L96.36 17.23L96.36 17.23Q96.46 17.39 96.70 17.39L96.70 17.39L96.70 17.39Q96.89 17.39 97.11 17.21L97.11 17.21L97.11 17.21Q97.33 17.04 97.44 16.84L97.44 16.84L97.68 17.05L97.68 17.05Q97.44 17.51 97.02 17.84L97.02 17.84L97.02 17.84Q96.60 18.16 96.18 18.16L96.18 18.16L96.18 18.16Q95.00 18.16 95.00 16.74L95.00 16.74L95.00 5.68L96.26 5.15ZM102.28 11.09L102.28 11.09Q102.97 11.09 103.58 11.38L103.58 11.38L103.58 11.38Q104.19 11.68 104.47 12.28L104.47 12.28L103.46 12.82L103.46 12.82Q103.24 12.50 102.84 12.24L102.84 12.24L102.84 12.24Q102.45 11.98 102.00 11.98L102.00 11.98L102.00 11.98Q101.29 11.98 100.76 12.36L100.76 12.36L100.76 12.36Q100.23 12.73 99.95 13.36L99.95 13.36L99.95 13.36Q99.67 13.99 99.67 14.76L99.67 14.76L99.67 14.76Q99.67 15.86 100.04 16.55L100.04 16.55L100.04 16.55Q100.42 17.25 101.23 17.25L101.23 17.25L101.23 17.25Q102.38 17.25 102.82 16.32L102.82 16.32L102.82 16.32Q103.25 15.40 103.25 14.31L103.25 14.31L103.25 13.68L104.48 13.16L104.48 16.84L104.48 16.84Q104.48 17.02 104.58 17.19L104.58 17.19L104.58 17.19Q104.68 17.36 104.87 17.36L104.87 17.36L104.87 17.36Q105.28 17.36 105.62 16.80L105.62 16.80L105.83 17.02L105.83 17.02Q105.66 17.50 105.24 17.83L105.24 17.83L105.24 17.83Q104.82 18.16 104.40 18.16L104.40 18.16L104.40 18.16Q103.80 18.16 103.51 17.71L103.51 17.71L103.51 17.71Q103.22 17.26 103.22 16.52L103.22 16.52L103.19 16.52L103.19 16.52Q102.84 17.26 102.25 17.76L102.25 17.76L102.25 17.76Q101.65 18.26 101.00 18.26L101.00 18.26L101.00 18.26Q99.81 18.26 99.20 17.44L99.20 17.44L99.20 17.44Q98.59 16.62 98.59 15.25L98.59 15.25L98.59 15.25Q98.59 14.15 99.08 13.20L99.08 13.20L99.08 13.20Q99.57 12.24 100.41 11.66L100.41 11.66L100.41 11.66Q101.26 11.09 102.28 11.09L102.28 11.09ZM112.01 10.96L112.01 10.96Q112.57 10.96 112.74 11.38L112.74 11.38L112.74 11.38Q112.91 11.79 112.91 12.52L112.91 12.52L112.91 12.95L112.91 16.91L112.91 16.91Q112.91 17.07 113.01 17.23L113.01 17.23L113.01 17.23Q113.11 17.39 113.29 17.39L113.29 17.39L113.29 17.39Q113.53 17.39 113.69 17.23L113.69 17.23L113.69 17.23Q113.86 17.08 114.03 16.84L114.03 16.84L114.24 17.05L114.24 17.05Q114.03 17.50 113.61 17.83L113.61 17.83L113.61 17.83Q113.19 18.16 112.81 18.16L112.81 18.16L112.81 18.16Q112.25 18.16 111.94 17.81L111.94 17.81L111.94 17.81Q111.64 17.46 111.64 16.74L111.64 16.74L111.64 13.03L111.64 13.03Q111.64 12.82 111.59 12.68L111.59 12.68L111.59 12.68Q111.55 12.54 111.38 12.54L111.38 12.54L111.38 12.54Q110.81 12.54 110.21 13.65L110.21 13.65L110.21 13.65Q109.61 14.76 109.18 16.12L109.18 16.12L109.18 16.12Q108.75 17.49 108.75 17.92L108.75 17.92L107.53 18.28L107.53 12.29L107.53 12.29Q107.53 12.10 107.43 11.94L107.43 11.94L107.43 11.94Q107.32 11.77 107.13 11.77L107.13 11.77L107.13 11.77Q106.79 11.77 106.40 12.38L106.40 12.38L106.19 12.15L106.19 12.15Q106.37 11.65 106.79 11.30L106.79 11.30L106.79 11.30Q107.21 10.96 107.63 10.96L107.63 10.96L107.63 10.96Q108.22 10.96 108.51 11.24L108.51 11.24L108.51 11.24Q108.79 11.52 108.79 12.01L108.79 12.01L108.79 15.69L108.85 15.69L108.85 15.69Q109.23 14.45 109.58 13.52L109.58 13.52L109.58 13.52Q109.93 12.60 110.56 11.78L110.56 11.78L110.56 11.78Q111.19 10.96 112.01 10.96L112.01 10.96ZM121.13 5.15L121.13 16.84L121.13 16.84Q121.13 17.04 121.22 17.20L121.22 17.20L121.22 17.20Q121.31 17.36 121.51 17.36L121.51 17.36L121.51 17.36Q121.70 17.36 121.90 17.19L121.90 17.19L121.90 17.19Q122.09 17.01 122.19 16.80L122.19 16.80L122.46 17.02L122.46 17.02Q122.23 17.50 121.82 17.83L121.82 17.83L121.82 17.83Q121.41 18.16 121.02 18.16L121.02 18.16L121.02 18.16Q120.37 18.16 120.08 17.79L120.08 17.79L120.08 17.79Q119.78 17.43 119.80 16.53L119.80 16.53L119.74 16.53L119.74 16.53Q118.89 18.26 117.66 18.26L117.66 18.26L117.66 18.26Q116.44 18.26 115.79 17.41L115.79 17.41L115.79 17.41Q115.14 16.56 115.14 15.29L115.14 15.29L115.14 15.29Q115.14 14.28 115.57 13.29L115.57 13.29L115.57 13.29Q116.00 12.29 116.81 11.65L116.81 11.65L116.81 11.65Q117.61 11.00 118.66 11.00L118.66 11.00L118.66 11.00Q119.32 11.00 119.81 11.34L119.81 11.34L119.81 5.68L121.13 5.15ZM118.58 11.83L118.58 11.83Q117.80 11.83 117.28 12.32L117.28 12.32L117.28 12.32Q116.77 12.81 116.54 13.50L116.54 13.50L116.54 13.50Q116.30 14.20 116.30 14.80L116.30 14.80L116.30 14.80Q116.30 15.27 116.47 15.85L116.47 15.85L116.47 15.85Q116.63 16.42 117.01 16.84L117.01 16.84L117.01 16.84Q117.39 17.25 117.98 17.25L117.98 17.25L117.98 17.25Q119.04 17.25 119.43 16.33L119.43 16.33L119.43 16.33Q119.81 15.41 119.81 14.31L119.81 14.31L119.81 12.39L119.81 12.39Q119.57 12.14 119.26 11.98L119.26 11.98L119.26 11.98Q118.94 11.83 118.58 11.83L118.58 11.83Z"></path></g><!----><g data-v-423bf9ae="" id="7ad53fe4-76ab-45b2-a436-ed2b70e128c8" transform="matrix(1.1820875923731398,0,0,1.1820875923731398,217.8955107687736,-15.524371097919513)" stroke="none" fill="white"><defs><style>.fil0{fill:#000}</style></defs><path class="fil0" d="M78.511 18.098c3.303 0 6.013 3.049 6.013 6.775 0 3.726-2.71 6.775-6.013 6.775s-6.013-3.049-6.013-6.775c0-3.726 2.71-6.775 6.013-6.775zM80.036 42.404c-1.61 0-2.964 1.355-2.964 2.964 0 1.61 1.355 2.964 2.964 2.964V42.32z"></path><path class="fil0" d="M86.133 33.088c1.017 0 2.033.508 2.541 1.44l5.76 9.146c1.354 2.202.168 4.828-2.372 4.828h-2.033v-7.03h-9.993a3.976 3.976 0 0 0-3.98 3.98 3.976 3.976 0 0 0 3.98 3.981v9.994h7.368v6.606h-.593v21.003c0 1.609-1.355 2.964-2.964 2.964h-1.779c-1.609 0-2.964-1.355-2.964-2.964V66.033h-1.186v21.003c0 1.609-1.355 2.964-2.964 2.964h-1.778c-1.61 0-2.964-1.355-2.964-2.964V66.033h-.593v-26l-7.453 2.032c-1.016.254-2.117 0-2.88-.762-2.879-2.795-5.674-5.674-8.553-8.554a2.965 2.965 0 0 1 0-4.234 2.965 2.965 0 0 1 4.234 0l7.284 7.283 9.909-2.625c.254-.085.508-.085.846-.085h13.212z"></path><path d="M44.55 25.127H64.2c.375 0 .677.283.677.635 0 .352-.302.636-.677.636H44.55c-.375 0-.677-.284-.677-.636 0-.352.302-.635.677-.635z"></path><path class="fil0" d="M54.375 16.15c4.996 0 8.977 3.472 8.977 7.707H45.397c0-4.235 4.065-7.707 8.978-7.707z"></path><path d="M55.137 14.626a.762.762 0 1 1-1.525 0 .762.762 0 0 1 1.525 0zM57.423 61.29l2.541 24.984H5L7.54 61.29zM11.267 87.46h4.997v2.455h-4.997zM48.7 87.46h4.997v2.455H48.7z"></path><path class="fil0" d="M33.202 46.554l.762-1.525h-3.049l.762 1.525-.423 5.843-1.863-7.283c-3.303 0-6.013 2.71-6.013 6.013v8.977h17.954v-8.977c0-3.303-2.71-6.013-6.013-6.013l-1.863 7.283-.423-5.843zM32.44 30.04c3.303 0 6.013 3.048 6.013 6.774 0 3.727-2.71 6.776-6.013 6.776s-6.013-3.05-6.013-6.776 2.71-6.775 6.013-6.775zM16.518 49.603c-1.355 2.286-.424 6.013 2.117 6.351v2.456c0 1.101-2.032 1.186-2.032 1.61h4.827c0-.424-2.033-.424-2.033-1.61v-2.456c2.541-.338 3.557-4.065 2.118-6.351h-5.082zm.254.423h4.658c.254.508.423 1.186.423 1.779.085 1.693-.847 3.81-2.794 3.81-.424 0-.932-.084-1.27-.338-1.102-.678-1.525-2.202-1.525-3.472 0-.593.17-1.186.423-1.779z"></path><path class="fil0" d="M21.43 51.635v.17c.085 1.44-.678 3.387-2.371 3.387-.424 0-.763-.085-1.101-.339-.932-.592-1.355-2.032-1.27-3.133v-.085c1.693 1.27 2.963-.678 4.742-.085zM13.3 42.827h-2.033a.182.182 0 0 1-.17-.169v-1.61c0-.084.085-.168.17-.168H13.3c.084 0 .169.084.169.169v1.61c0 .084-.085.168-.17.168z"></path><path d="M9.489 50.873v3.98h3.98v-3.98z"></path><path class="fil0" d="M11.267 45.792c-1.016.423-1.778 1.44-1.778 2.625v2.033h4.403v4.827H9.49v3.98a.76.76 0 0 0 .762.763h3.98a.76.76 0 0 0 .762-.763V48.502c0-1.186-.762-2.202-1.778-2.626v-2.54h-2.033v2.54z"></path><path d="M89.098 42.404V58.41h-8.046V42.404z"></path></g><!----><g data-v-423bf9ae="" id="e90e42a6-ae69-47df-a186-a9fd434fb1f4" fill="white" transform="matrix(0.737530583519484,0,0,0.737530583519484,69.72241609090432,201.12888498155533)"><path d="M7.28 9.34L7.28 9.34L7.28 9.34Q7.73 9.34 7.99 9.59L7.99 9.59L7.99 9.59Q8.25 9.84 8.25 10.29L8.25 10.29L8.25 10.29Q8.25 10.40 8.23 10.52L8.23 10.52L8.23 10.52Q8.22 10.64 8.18 10.72L8.18 10.72L8.18 10.72Q7.99 10.70 7.77 10.68L7.77 10.68L7.77 10.68Q7.55 10.65 7.24 10.65L7.24 10.65L7.24 10.65Q6.61 10.65 5.98 10.77L5.98 10.77L5.98 10.77Q5.35 10.88 4.77 10.95L4.77 10.95L4.77 10.95Q4.14 12.43 3.74 13.73L3.74 13.73L3.74 13.73Q3.33 15.04 3.11 16.31L3.11 16.31L3.11 16.31Q2.63 16.20 2.27 15.90L2.27 15.90L2.27 15.90Q1.90 15.61 1.58 15.08L1.58 15.08L1.58 15.08Q1.68 14.85 1.82 14.54L1.82 14.54L1.82 14.54Q1.96 14.22 2.16 13.74L2.16 13.74L2.16 13.74Q2.35 13.26 2.63 12.56L2.63 12.56L2.63 12.56Q2.90 11.87 3.28 10.91L3.28 10.91L3.28 10.91Q2.69 10.71 2.51 10.22L2.51 10.22L2.51 10.22Q2.58 10.15 2.90 10.06L2.90 10.06L2.90 10.06Q3.22 9.97 3.68 9.86L3.68 9.86L3.68 9.86Q3.89 9.31 4.05 8.88L4.05 8.88L4.05 8.88Q4.20 8.46 4.33 8.07L4.33 8.07L4.33 8.07Q4.45 7.69 4.56 7.32L4.56 7.32L4.56 7.32Q4.66 6.94 4.75 6.52L4.75 6.52L4.68 6.52L4.68 6.52Q4.14 6.52 3.81 6.27L3.81 6.27L3.81 6.27Q3.49 6.02 3.49 5.61L3.49 5.61L3.49 5.61Q3.49 5.50 3.52 5.35L3.52 5.35L3.52 5.35Q3.56 5.19 3.61 5.08L3.61 5.08L3.61 5.08Q3.88 5.12 4.14 5.14L4.14 5.14L4.14 5.14Q4.40 5.15 4.82 5.15L4.82 5.15L4.82 5.15Q5.70 5.15 6.47 5.10L6.47 5.10L6.47 5.10Q7.24 5.05 7.86 5.00L7.86 5.00L7.86 5.00Q8.48 4.94 8.93 4.89L8.93 4.89L8.93 4.89Q9.38 4.84 9.62 4.84L9.62 4.84L9.62 4.84Q9.94 4.84 10.19 5.18L10.19 5.18L10.19 5.18Q10.44 5.52 10.58 6.13L10.58 6.13L10.58 6.13Q10.14 6.09 9.86 6.08L9.86 6.08L9.86 6.08Q9.59 6.06 9.38 6.06L9.38 6.06L9.38 6.06Q8.67 6.06 8.07 6.13L8.07 6.13L8.07 6.13Q7.48 6.19 6.94 6.27L6.94 6.27L6.94 6.27Q6.86 6.40 6.75 6.59L6.75 6.59L6.75 6.59Q6.65 6.79 6.48 7.15L6.48 7.15L6.48 7.15Q6.31 7.50 6.05 8.08L6.05 8.08L6.05 8.08Q5.80 8.65 5.40 9.53L5.40 9.53L5.40 9.53Q5.95 9.45 6.45 9.39L6.45 9.39L6.45 9.39Q6.94 9.34 7.28 9.34ZM22.58 4.98L22.58 4.98L22.58 4.98Q22.85 5.10 23.13 5.27L23.13 5.27L23.13 5.27Q23.41 5.45 23.65 5.63L23.65 5.63L23.65 5.63Q23.88 5.81 24.05 5.98L24.05 5.98L24.05 5.98Q24.21 6.16 24.22 6.27L24.22 6.27L24.22 6.27Q23.98 6.22 23.74 6.20L23.74 6.20L23.74 6.20Q23.51 6.17 23.31 6.17L23.31 6.17L23.31 6.17Q22.68 6.17 22.06 6.48L22.06 6.48L22.06 6.48Q21.43 6.79 20.87 7.32L20.87 7.32L20.87 7.32Q20.31 7.85 19.84 8.57L19.84 8.57L19.84 8.57Q19.36 9.28 19.02 10.09L19.02 10.09L19.02 10.09Q18.68 10.91 18.48 11.77L18.48 11.77L18.48 11.77Q18.28 12.64 18.28 13.48L18.28 13.48L18.28 13.48Q18.28 14.57 18.65 15.11L18.65 15.11L18.65 15.11Q19.01 15.64 19.71 15.64L19.71 15.64L19.71 15.64Q20.05 15.64 20.44 15.51L20.44 15.51L20.44 15.51Q20.83 15.37 21.24 15.13L21.24 15.13L21.24 15.13Q21.64 14.90 22.04 14.56L22.04 14.56L22.04 14.56Q22.43 14.22 22.76 13.82L22.76 13.82L22.76 13.82Q23.25 13.23 23.65 12.48L23.65 12.48L23.65 12.48Q24.04 11.73 24.31 10.89L24.31 10.89L24.31 10.89Q24.58 10.05 24.73 9.16L24.73 9.16L24.73 9.16Q24.88 8.27 24.88 7.42L24.88 7.42L24.88 7.42Q24.88 7.08 24.86 6.85L24.86 6.85L24.86 6.85Q24.85 6.62 24.83 6.46L24.83 6.46L24.83 6.46Q24.81 6.30 24.79 6.20L24.79 6.20L24.79 6.20Q24.78 6.10 24.77 6.03L24.77 6.03L24.77 6.03Q24.93 6.12 25.14 6.24L25.14 6.24L25.14 6.24Q25.34 6.36 25.52 6.59L25.52 6.59L25.52 6.59Q25.69 6.82 25.81 7.20L25.81 7.20L25.81 7.20Q25.93 7.57 25.93 8.18L25.93 8.18L25.93 8.18Q25.93 9.16 25.70 10.10L25.70 10.10L25.70 10.10Q25.47 11.05 25.05 11.90L25.05 11.90L25.05 11.90Q24.64 12.75 24.08 13.50L24.08 13.50L24.08 13.50Q23.52 14.24 22.88 14.80L22.88 14.80L22.88 14.80Q22.04 15.54 21.08 15.95L21.08 15.95L21.08 15.95Q20.13 16.35 19.25 16.35L19.25 16.35L19.25 16.35Q17.96 16.35 17.28 15.53L17.28 15.53L17.28 15.53Q16.60 14.71 16.60 13.12L16.60 13.12L16.60 13.12Q16.60 12.26 16.79 11.31L16.79 11.31L16.79 11.31Q16.98 10.36 17.32 9.44L17.32 9.44L17.32 9.44Q17.67 8.51 18.14 7.68L18.14 7.68L18.14 7.68Q18.62 6.85 19.19 6.21L19.19 6.21L19.19 6.21Q19.75 5.57 20.41 5.19L20.41 5.19L20.41 5.19Q21.06 4.82 21.74 4.82L21.74 4.82L21.74 4.82Q21.97 4.82 22.16 4.85L22.16 4.85L22.16 4.85Q22.36 4.89 22.58 4.98ZM42.77 7.46L42.77 7.46L42.77 7.46Q42.77 8.13 42.47 8.73L42.47 8.73L42.47 8.73Q42.17 9.32 41.64 9.79L41.64 9.79L41.64 9.79Q41.10 10.26 40.39 10.58L40.39 10.58L40.39 10.58Q39.68 10.91 38.84 11.02L38.84 11.02L38.84 11.02Q39.05 11.65 39.35 12.31L39.35 12.31L39.35 12.31Q39.65 12.98 40.00 13.59L40.00 13.59L40.00 13.59Q40.35 14.21 40.73 14.73L40.73 14.73L40.73 14.73Q41.10 15.25 41.47 15.58L41.47 15.58L41.47 15.58Q41.40 15.72 41.27 15.86L41.27 15.86L41.27 15.86Q41.13 16.00 40.96 16.12L40.96 16.12L40.96 16.12Q40.78 16.24 40.59 16.32L40.59 16.32L40.59 16.32Q40.40 16.39 40.24 16.39L40.24 16.39L40.24 16.39Q39.93 16.39 39.65 16.10L39.65 16.10L39.65 16.10Q39.37 15.81 39.08 15.17L39.08 15.17L39.08 15.17Q38.79 14.53 38.48 13.52L38.48 13.52L38.48 13.52Q38.16 12.50 37.79 11.07L37.79 11.07L37.79 11.07Q37.63 11.07 37.48 11.07L37.48 11.07L37.48 11.07Q37.32 11.07 37.24 11.05L37.24 11.05L37.24 11.05Q37.14 10.99 37.03 10.85L37.03 10.85L37.03 10.85Q36.65 11.66 36.36 12.38L36.36 12.38L36.36 12.38Q36.06 13.09 35.83 13.76L35.83 13.76L35.83 13.76Q35.60 14.42 35.43 15.04L35.43 15.04L35.43 15.04Q35.25 15.67 35.13 16.31L35.13 16.31L35.13 16.31Q34.65 16.20 34.30 15.90L34.30 15.90L34.30 15.90Q33.95 15.61 33.64 15.08L33.64 15.08L33.64 15.08Q33.70 14.95 33.76 14.83L33.76 14.83L33.76 14.83Q33.82 14.71 33.92 14.50L33.92 14.50L33.92 14.50Q34.02 14.28 34.17 13.94L34.17 13.94L34.17 13.94Q34.31 13.61 34.56 13.05L34.56 13.05L34.56 13.05Q34.80 12.49 35.15 11.68L35.15 11.68L35.15 11.68Q35.49 10.86 35.98 9.70L35.98 9.70L35.98 9.70Q36.20 9.18 36.36 8.79L36.36 8.79L36.36 8.79Q36.53 8.40 36.65 8.04L36.65 8.04L36.65 8.04Q36.78 7.69 36.88 7.33L36.88 7.33L36.88 7.33Q36.99 6.97 37.10 6.51L37.10 6.51L37.10 6.51Q36.46 6.73 35.90 7.01L35.90 7.01L35.90 7.01Q35.35 7.28 34.99 7.59L34.99 7.59L34.99 7.59Q34.86 7.50 34.73 7.34L34.73 7.34L34.73 7.34Q34.59 7.17 34.48 6.96L34.48 6.96L34.48 6.96Q34.37 6.76 34.29 6.55L34.29 6.55L34.29 6.55Q34.20 6.34 34.19 6.17L34.19 6.17L34.19 6.17Q34.61 5.89 35.22 5.66L35.22 5.66L35.22 5.66Q35.83 5.42 36.51 5.24L36.51 5.24L36.51 5.24Q37.20 5.07 37.91 4.97L37.91 4.97L37.91 4.97Q38.63 4.87 39.24 4.87L39.24 4.87L39.24 4.87Q40.92 4.87 41.85 5.56L41.85 5.56L41.85 5.56Q42.77 6.26 42.77 7.46ZM39.19 6.02L39.35 6.29L39.35 6.29Q39.26 6.41 39.05 6.79L39.05 6.79L39.05 6.79Q38.84 7.17 38.56 7.69L38.56 7.69L38.56 7.69Q38.29 8.22 37.99 8.83L37.99 8.83L37.99 8.83Q37.69 9.45 37.41 10.05L37.41 10.05L37.41 10.05Q38.46 10.05 39.34 9.86L39.34 9.86L39.34 9.86Q40.22 9.66 40.87 9.30L40.87 9.30L40.87 9.30Q41.51 8.95 41.87 8.46L41.87 8.46L41.87 8.46Q42.22 7.98 42.22 7.39L42.22 7.39L42.22 7.39Q42.22 6.69 41.72 6.32L41.72 6.32L41.72 6.32Q41.22 5.95 40.17 5.95L40.17 5.95L40.17 5.95Q39.93 5.95 39.69 5.97L39.69 5.97L39.69 5.97Q39.45 5.99 39.19 6.02L39.19 6.02ZM66.04 9.21L66.04 9.21L66.04 9.21Q66.50 9.21 66.76 9.46L66.76 9.46L66.76 9.46Q67.02 9.72 67.02 10.16L67.02 10.16L67.02 10.16Q67.02 10.28 67.00 10.39L67.00 10.39L67.00 10.39Q66.98 10.51 66.95 10.60L66.95 10.60L66.95 10.60Q66.77 10.57 66.54 10.55L66.54 10.55L66.54 10.55Q66.32 10.53 66.01 10.53L66.01 10.53L66.01 10.53Q65.41 10.53 64.79 10.63L64.79 10.63L64.79 10.63Q64.18 10.74 63.62 10.81L63.62 10.81L63.62 10.81Q63.29 11.55 63.03 12.24L63.03 12.24L63.03 12.24Q62.76 12.94 62.57 13.51L62.57 13.51L62.57 13.51Q62.38 14.08 62.28 14.50L62.28 14.50L62.28 14.50Q62.17 14.92 62.16 15.13L62.16 15.13L62.16 15.13Q63.29 14.90 64.45 14.73L64.45 14.73L64.45 14.73Q65.60 14.56 66.88 14.48L66.88 14.48L66.88 14.48Q67.03 14.71 67.14 14.99L67.14 14.99L67.14 14.99Q67.24 15.27 67.24 15.60L67.24 15.60L67.24 15.60Q67.24 15.68 67.24 15.78L67.24 15.78L67.24 15.78Q67.24 15.88 67.21 15.97L67.21 15.97L67.21 15.97Q66.82 15.96 66.39 15.95L66.39 15.95L66.39 15.95Q65.95 15.95 65.25 15.95L65.25 15.95L65.25 15.95Q64.79 15.95 64.38 15.97L64.38 15.97L64.38 15.97Q63.97 15.99 63.55 16.03L63.55 16.03L63.55 16.03Q63.13 16.07 62.66 16.14L62.66 16.14L62.66 16.14Q62.19 16.21 61.60 16.31L61.60 16.31L61.60 16.31Q60.96 16.06 60.35 15.08L60.35 15.08L60.35 15.08Q60.59 14.57 61.02 13.54L61.02 13.54L61.02 13.54Q61.45 12.52 62.10 10.79L62.10 10.79L62.10 10.79Q61.47 10.60 61.28 10.09L61.28 10.09L61.28 10.09Q61.35 10.02 61.68 9.92L61.68 9.92L61.68 9.92Q62.02 9.81 62.51 9.70L62.51 9.70L62.51 9.70Q62.72 9.16 62.87 8.75L62.87 8.75L62.87 8.75Q63.01 8.34 63.13 7.99L63.13 7.99L63.13 7.99Q63.24 7.63 63.33 7.29L63.33 7.29L63.33 7.29Q63.42 6.94 63.50 6.54L63.50 6.54L63.50 6.54Q63.01 6.51 62.73 6.27L62.73 6.27L62.73 6.27Q62.45 6.02 62.45 5.63L62.45 5.63L62.45 5.63Q62.45 5.52 62.49 5.36L62.49 5.36L62.49 5.36Q62.52 5.21 62.57 5.10L62.57 5.10L62.57 5.10Q62.85 5.14 63.10 5.15L63.10 5.15L63.10 5.15Q63.36 5.17 63.78 5.17L63.78 5.17L63.78 5.17Q64.67 5.17 65.44 5.12L65.44 5.12L65.44 5.12Q66.21 5.07 66.83 5.01L66.83 5.01L66.83 5.01Q67.45 4.96 67.90 4.91L67.90 4.91L67.90 4.91Q68.35 4.86 68.59 4.86L68.59 4.86L68.59 4.86Q68.91 4.86 69.16 5.19L69.16 5.19L69.16 5.19Q69.41 5.53 69.54 6.15L69.54 6.15L69.54 6.15Q69.10 6.10 68.83 6.09L68.83 6.09L68.83 6.09Q68.56 6.08 68.35 6.08L68.35 6.08L68.35 6.08Q67.58 6.08 66.94 6.15L66.94 6.15L66.94 6.15Q66.30 6.23 65.72 6.31L65.72 6.31L65.72 6.31Q65.63 6.44 65.53 6.64L65.53 6.64L65.53 6.64Q65.42 6.83 65.25 7.18L65.25 7.18L65.25 7.18Q65.09 7.53 64.84 8.06L64.84 8.06L64.84 8.06Q64.60 8.60 64.25 9.39L64.25 9.39L64.25 9.39Q64.78 9.31 65.25 9.26L65.25 9.26L65.25 9.26Q65.72 9.21 66.04 9.21ZM80.23 16.07L80.23 16.07L80.23 16.07Q79.91 16.24 79.55 16.24L79.55 16.24L79.55 16.24Q79.10 16.18 78.69 16.02L78.69 16.02L78.69 16.02Q78.27 15.85 78.08 15.61L78.08 15.61L78.08 15.61Q77.97 14.92 77.90 14.35L77.90 14.35L77.90 14.35Q77.83 13.78 77.78 13.27L77.78 13.27L77.78 13.27Q77.74 12.75 77.73 12.29L77.73 12.29L77.73 12.29Q77.71 11.82 77.71 11.34L77.71 11.34L77.71 11.34Q77.71 10.71 77.73 10.01L77.73 10.01L77.73 10.01Q77.74 9.31 77.76 8.52L77.76 8.52L77.76 8.52Q77.78 7.73 77.80 6.82L77.80 6.82L77.80 6.82Q77.81 5.92 77.81 4.86L77.81 4.86L77.81 4.86Q77.99 4.86 78.36 4.96L78.36 4.96L78.36 4.96Q78.72 5.07 79.08 5.21L79.08 5.21L79.08 5.21Q79.44 5.35 79.72 5.49L79.72 5.49L79.72 5.49Q80.00 5.64 80.02 5.74L80.02 5.74L80.02 5.74Q79.88 6.13 79.78 6.76L79.78 6.76L79.78 6.76Q79.67 7.39 79.61 8.16L79.61 8.16L79.61 8.16Q79.55 8.93 79.52 9.79L79.52 9.79L79.52 9.79Q79.49 10.64 79.49 11.48L79.49 11.48L79.49 11.48Q79.49 12.11 79.51 12.61L79.51 12.61L79.51 12.61Q79.52 13.10 79.54 13.50L79.54 13.50L79.54 13.50Q79.56 13.90 79.60 14.25L79.60 14.25L79.60 14.25Q79.65 14.59 79.70 14.92L79.70 14.92L79.70 14.92Q80.09 13.73 80.56 12.54L80.56 12.54L80.56 12.54Q81.03 11.35 81.53 10.25L81.53 10.25L81.53 10.25Q82.03 9.16 82.52 8.20L82.52 8.20L82.52 8.20Q83.01 7.25 83.45 6.54L83.45 6.54L83.45 6.54Q83.89 5.84 84.24 5.43L84.24 5.43L84.24 5.43Q84.59 5.01 84.81 4.98L84.81 4.98L84.81 4.98Q84.97 5.01 85.14 5.10L85.14 5.10L85.14 5.10Q85.32 5.19 85.47 5.32L85.47 5.32L85.47 5.32Q85.62 5.45 85.75 5.60L85.75 5.60L85.75 5.60Q85.88 5.75 85.95 5.91L85.95 5.91L85.95 5.91Q85.43 6.09 84.83 6.76L84.83 6.76L84.83 6.76Q84.24 7.43 83.64 8.38L83.64 8.38L83.64 8.38Q83.03 9.32 82.47 10.44L82.47 10.44L82.47 10.44Q81.90 11.55 81.44 12.61L81.44 12.61L81.44 12.61Q80.99 13.68 80.67 14.60L80.67 14.60L80.67 14.60Q80.35 15.53 80.23 16.07ZM97.20 9.21L97.20 9.21L97.20 9.21Q97.66 9.21 97.92 9.46L97.92 9.46L97.92 9.46Q98.18 9.72 98.18 10.16L98.18 10.16L98.18 10.16Q98.18 10.28 98.16 10.39L98.16 10.39L98.16 10.39Q98.14 10.51 98.11 10.60L98.11 10.60L98.11 10.60Q97.93 10.57 97.71 10.55L97.71 10.55L97.71 10.55Q97.48 10.53 97.17 10.53L97.17 10.53L97.17 10.53Q96.57 10.53 95.96 10.63L95.96 10.63L95.96 10.63Q95.34 10.74 94.78 10.81L94.78 10.81L94.78 10.81Q94.46 11.55 94.19 12.24L94.19 12.24L94.19 12.24Q93.93 12.94 93.74 13.51L93.74 13.51L93.74 13.51Q93.55 14.08 93.44 14.50L93.44 14.50L93.44 14.50Q93.34 14.92 93.32 15.13L93.32 15.13L93.32 15.13Q94.46 14.90 95.61 14.73L95.61 14.73L95.61 14.73Q96.77 14.56 98.04 14.48L98.04 14.48L98.04 14.48Q98.20 14.71 98.30 14.99L98.30 14.99L98.30 14.99Q98.41 15.27 98.41 15.60L98.41 15.60L98.41 15.60Q98.41 15.68 98.41 15.78L98.41 15.78L98.41 15.78Q98.41 15.88 98.38 15.97L98.38 15.97L98.38 15.97Q97.99 15.96 97.55 15.95L97.55 15.95L97.55 15.95Q97.12 15.95 96.42 15.95L96.42 15.95L96.42 15.95Q95.96 15.95 95.54 15.97L95.54 15.97L95.54 15.97Q95.13 15.99 94.71 16.03L94.71 16.03L94.71 16.03Q94.29 16.07 93.82 16.14L93.82 16.14L93.82 16.14Q93.35 16.21 92.76 16.31L92.76 16.31L92.76 16.31Q92.12 16.06 91.52 15.08L91.52 15.08L91.52 15.08Q91.76 14.57 92.18 13.54L92.18 13.54L92.18 13.54Q92.61 12.52 93.27 10.79L93.27 10.79L93.27 10.79Q92.64 10.60 92.44 10.09L92.44 10.09L92.44 10.09Q92.51 10.02 92.85 9.92L92.85 9.92L92.85 9.92Q93.18 9.81 93.67 9.70L93.67 9.70L93.67 9.70Q93.88 9.16 94.03 8.75L94.03 8.75L94.03 8.75Q94.18 8.34 94.29 7.99L94.29 7.99L94.29 7.99Q94.40 7.63 94.49 7.29L94.49 7.29L94.49 7.29Q94.58 6.94 94.67 6.54L94.67 6.54L94.67 6.54Q94.18 6.51 93.90 6.27L93.90 6.27L93.90 6.27Q93.62 6.02 93.62 5.63L93.62 5.63L93.62 5.63Q93.62 5.52 93.65 5.36L93.65 5.36L93.65 5.36Q93.69 5.21 93.73 5.10L93.73 5.10L93.73 5.10Q94.01 5.14 94.27 5.15L94.27 5.15L94.27 5.15Q94.53 5.17 94.95 5.17L94.95 5.17L94.95 5.17Q95.83 5.17 96.60 5.12L96.60 5.12L96.60 5.12Q97.37 5.07 97.99 5.01L97.99 5.01L97.99 5.01Q98.62 4.96 99.06 4.91L99.06 4.91L99.06 4.91Q99.51 4.86 99.75 4.86L99.75 4.86L99.75 4.86Q100.07 4.86 100.32 5.19L100.32 5.19L100.32 5.19Q100.58 5.53 100.70 6.15L100.70 6.15L100.70 6.15Q100.27 6.10 100.00 6.09L100.00 6.09L100.00 6.09Q99.72 6.08 99.51 6.08L99.51 6.08L99.51 6.08Q98.74 6.08 98.11 6.15L98.11 6.15L98.11 6.15Q97.47 6.23 96.88 6.31L96.88 6.31L96.88 6.31Q96.80 6.44 96.69 6.64L96.69 6.64L96.69 6.64Q96.59 6.83 96.42 7.18L96.42 7.18L96.42 7.18Q96.25 7.53 96.00 8.06L96.00 8.06L96.00 8.06Q95.76 8.60 95.41 9.39L95.41 9.39L95.41 9.39Q95.94 9.31 96.41 9.26L96.41 9.26L96.41 9.26Q96.88 9.21 97.20 9.21ZM116.47 7.46L116.47 7.46L116.47 7.46Q116.47 8.13 116.16 8.73L116.16 8.73L116.16 8.73Q115.86 9.32 115.33 9.79L115.33 9.79L115.33 9.79Q114.80 10.26 114.09 10.58L114.09 10.58L114.09 10.58Q113.37 10.91 112.53 11.02L112.53 11.02L112.53 11.02Q112.74 11.65 113.04 12.31L113.04 12.31L113.04 12.31Q113.34 12.98 113.69 13.59L113.69 13.59L113.69 13.59Q114.04 14.21 114.42 14.73L114.42 14.73L114.42 14.73Q114.80 15.25 115.16 15.58L115.16 15.58L115.16 15.58Q115.09 15.72 114.96 15.86L114.96 15.86L114.96 15.86Q114.83 16.00 114.65 16.12L114.65 16.12L114.65 16.12Q114.48 16.24 114.29 16.32L114.29 16.32L114.29 16.32Q114.10 16.39 113.93 16.39L113.93 16.39L113.93 16.39Q113.62 16.39 113.34 16.10L113.34 16.10L113.34 16.10Q113.06 15.81 112.78 15.17L112.78 15.17L112.78 15.17Q112.49 14.53 112.17 13.52L112.17 13.52L112.17 13.52Q111.86 12.50 111.48 11.07L111.48 11.07L111.48 11.07Q111.33 11.07 111.17 11.07L111.17 11.07L111.17 11.07Q111.02 11.07 110.94 11.05L110.94 11.05L110.94 11.05Q110.84 10.99 110.73 10.85L110.73 10.85L110.73 10.85Q110.35 11.66 110.05 12.38L110.05 12.38L110.05 12.38Q109.76 13.09 109.53 13.76L109.53 13.76L109.53 13.76Q109.30 14.42 109.12 15.04L109.12 15.04L109.12 15.04Q108.95 15.67 108.82 16.31L108.82 16.31L108.82 16.31Q108.35 16.20 108.00 15.90L108.00 15.90L108.00 15.90Q107.65 15.61 107.34 15.08L107.34 15.08L107.34 15.08Q107.39 14.95 107.46 14.83L107.46 14.83L107.46 14.83Q107.52 14.71 107.62 14.50L107.62 14.50L107.62 14.50Q107.72 14.28 107.86 13.94L107.86 13.94L107.86 13.94Q108.01 13.61 108.25 13.05L108.25 13.05L108.25 13.05Q108.50 12.49 108.84 11.68L108.84 11.68L108.84 11.68Q109.19 10.86 109.68 9.70L109.68 9.70L109.68 9.70Q109.90 9.18 110.06 8.79L110.06 8.79L110.06 8.79Q110.22 8.40 110.35 8.04L110.35 8.04L110.35 8.04Q110.47 7.69 110.58 7.33L110.58 7.33L110.58 7.33Q110.68 6.97 110.80 6.51L110.80 6.51L110.80 6.51Q110.15 6.73 109.60 7.01L109.60 7.01L109.60 7.01Q109.05 7.28 108.68 7.59L108.68 7.59L108.68 7.59Q108.56 7.50 108.42 7.34L108.42 7.34L108.42 7.34Q108.29 7.17 108.18 6.96L108.18 6.96L108.18 6.96Q108.07 6.76 107.98 6.55L107.98 6.55L107.98 6.55Q107.90 6.34 107.88 6.17L107.88 6.17L107.88 6.17Q108.30 5.89 108.91 5.66L108.91 5.66L108.91 5.66Q109.52 5.42 110.21 5.24L110.21 5.24L110.21 5.24Q110.89 5.07 111.61 4.97L111.61 4.97L111.61 4.97Q112.32 4.87 112.94 4.87L112.94 4.87L112.94 4.87Q114.62 4.87 115.54 5.56L115.54 5.56L115.54 5.56Q116.47 6.26 116.47 7.46ZM112.88 6.02L113.05 6.29L113.05 6.29Q112.95 6.41 112.74 6.79L112.74 6.79L112.74 6.79Q112.53 7.17 112.26 7.69L112.26 7.69L112.26 7.69Q111.99 8.22 111.69 8.83L111.69 8.83L111.69 8.83Q111.38 9.45 111.10 10.05L111.10 10.05L111.10 10.05Q112.15 10.05 113.04 9.86L113.04 9.86L113.04 9.86Q113.92 9.66 114.56 9.30L114.56 9.30L114.56 9.30Q115.21 8.95 115.56 8.46L115.56 8.46L115.56 8.46Q115.92 7.98 115.92 7.39L115.92 7.39L115.92 7.39Q115.92 6.69 115.42 6.32L115.42 6.32L115.42 6.32Q114.91 5.95 113.86 5.95L113.86 5.95L113.86 5.95Q113.62 5.95 113.39 5.97L113.39 5.97L113.39 5.97Q113.15 5.99 112.88 6.02L112.88 6.02ZM128.04 10.35L128.04 10.35L128.04 10.35Q129.09 9.20 129.93 7.91L129.93 7.91L129.93 7.91Q130.76 6.62 131.47 5.01L131.47 5.01L131.47 5.01Q131.84 5.05 132.17 5.21L132.17 5.21L132.17 5.21Q132.51 5.36 132.71 5.56L132.71 5.56L132.71 5.56Q131.94 6.48 131.31 7.24L131.31 7.24L131.31 7.24Q130.69 7.99 130.17 8.66L130.17 8.66L130.17 8.66Q129.65 9.32 129.21 9.93L129.21 9.93L129.21 9.93Q128.77 10.54 128.35 11.16L128.35 11.16L128.35 11.16Q128.14 11.87 127.96 12.60L127.96 12.60L127.96 12.60Q127.78 13.33 127.64 13.99L127.64 13.99L127.64 13.99Q127.50 14.66 127.42 15.22L127.42 15.22L127.42 15.22Q127.34 15.79 127.34 16.20L127.34 16.20L127.34 16.20Q127.19 16.20 126.85 16.14L126.85 16.14L126.85 16.14Q126.52 16.07 126.17 15.99L126.17 15.99L126.17 15.99Q125.82 15.90 125.53 15.82L125.53 15.82L125.53 15.82Q125.24 15.74 125.19 15.68L125.19 15.68L125.19 15.68Q125.41 15.30 125.63 14.75L125.63 14.75L125.63 14.75Q125.85 14.20 126.06 13.59L126.06 13.59L126.06 13.59Q126.27 12.98 126.46 12.36L126.46 12.36L126.46 12.36Q126.66 11.73 126.83 11.20L126.83 11.20L126.83 11.20Q126.48 10.11 126.15 9.15L126.15 9.15L126.15 9.15Q125.82 8.19 125.51 7.41L125.51 7.41L125.51 7.41Q125.20 6.64 124.92 6.08L124.92 6.08L124.92 6.08Q124.64 5.52 124.39 5.22L124.39 5.22L124.39 5.22Q124.53 5.17 124.82 5.11L124.82 5.11L124.82 5.11Q125.10 5.05 125.45 5.00L125.45 5.00L125.45 5.00Q125.79 4.94 126.15 4.91L126.15 4.91L126.15 4.91Q126.50 4.87 126.78 4.86L126.78 4.86L126.78 4.86Q126.78 5.21 126.85 5.71L126.85 5.71L126.85 5.71Q126.91 6.22 127.01 6.79L127.01 6.79L127.01 6.79Q127.12 7.36 127.26 7.95L127.26 7.95L127.26 7.95Q127.40 8.54 127.54 9.03L127.54 9.03L127.54 9.03Q127.68 9.52 127.81 9.88L127.81 9.88L127.81 9.88Q127.95 10.23 128.04 10.35ZM155.25 4.98L155.25 4.98L155.25 4.98Q155.51 5.10 155.79 5.27L155.79 5.27L155.79 5.27Q156.07 5.45 156.31 5.63L156.31 5.63L156.31 5.63Q156.55 5.81 156.71 5.98L156.71 5.98L156.71 5.98Q156.87 6.16 156.88 6.27L156.88 6.27L156.88 6.27Q156.65 6.22 156.41 6.20L156.41 6.20L156.41 6.20Q156.17 6.17 155.97 6.17L155.97 6.17L155.97 6.17Q155.34 6.17 154.72 6.48L154.72 6.48L154.72 6.48Q154.10 6.79 153.54 7.32L153.54 7.32L153.54 7.32Q152.98 7.85 152.50 8.57L152.50 8.57L152.50 8.57Q152.03 9.28 151.68 10.09L151.68 10.09L151.68 10.09Q151.34 10.91 151.14 11.77L151.14 11.77L151.14 11.77Q150.95 12.64 150.95 13.48L150.95 13.48L150.95 13.48Q150.95 14.57 151.31 15.11L151.31 15.11L151.31 15.11Q151.68 15.64 152.38 15.64L152.38 15.64L152.38 15.64Q152.71 15.64 153.10 15.51L153.10 15.51L153.10 15.51Q153.50 15.37 153.90 15.13L153.90 15.13L153.90 15.13Q154.31 14.90 154.70 14.56L154.70 14.56L154.70 14.56Q155.09 14.22 155.43 13.82L155.43 13.82L155.43 13.82Q155.92 13.23 156.31 12.48L156.31 12.48L156.31 12.48Q156.70 11.73 156.97 10.89L156.97 10.89L156.97 10.89Q157.25 10.05 157.39 9.16L157.39 9.16L157.39 9.16Q157.54 8.27 157.54 7.42L157.54 7.42L157.54 7.42Q157.54 7.08 157.53 6.85L157.53 6.85L157.53 6.85Q157.51 6.62 157.49 6.46L157.49 6.46L157.49 6.46Q157.47 6.30 157.46 6.20L157.46 6.20L157.46 6.20Q157.44 6.10 157.43 6.03L157.43 6.03L157.43 6.03Q157.60 6.12 157.80 6.24L157.80 6.24L157.80 6.24Q158.00 6.36 158.18 6.59L158.18 6.59L158.18 6.59Q158.35 6.82 158.47 7.20L158.47 7.20L158.47 7.20Q158.59 7.57 158.59 8.18L158.59 8.18L158.59 8.18Q158.59 9.16 158.36 10.10L158.36 10.10L158.36 10.10Q158.13 11.05 157.72 11.90L157.72 11.90L157.72 11.90Q157.30 12.75 156.74 13.50L156.74 13.50L156.74 13.50Q156.18 14.24 155.54 14.80L155.54 14.80L155.54 14.80Q154.70 15.54 153.75 15.95L153.75 15.95L153.75 15.95Q152.80 16.35 151.91 16.35L151.91 16.35L151.91 16.35Q150.63 16.35 149.95 15.53L149.95 15.53L149.95 15.53Q149.27 14.71 149.27 13.12L149.27 13.12L149.27 13.12Q149.27 12.26 149.46 11.31L149.46 11.31L149.46 11.31Q149.65 10.36 149.99 9.44L149.99 9.44L149.99 9.44Q150.33 8.51 150.81 7.68L150.81 7.68L150.81 7.68Q151.28 6.85 151.85 6.21L151.85 6.21L151.85 6.21Q152.42 5.57 153.07 5.19L153.07 5.19L153.07 5.19Q153.72 4.82 154.41 4.82L154.41 4.82L154.41 4.82Q154.63 4.82 154.83 4.85L154.83 4.85L154.83 4.85Q155.02 4.89 155.25 4.98ZM166.49 12.43L166.49 12.43L166.49 12.43Q166.49 11.45 166.72 10.51L166.72 10.51L166.72 10.51Q166.95 9.56 167.37 8.71L167.37 8.71L167.37 8.71Q167.79 7.87 168.37 7.16L168.37 7.16L168.37 7.16Q168.95 6.45 169.65 5.94L169.65 5.94L169.65 5.94Q170.34 5.42 171.12 5.13L171.12 5.13L171.12 5.13Q171.91 4.84 172.73 4.84L172.73 4.84L172.73 4.84Q173.70 4.84 174.24 5.25L174.24 5.25L174.24 5.25Q174.78 5.66 174.78 6.38L174.78 6.38L174.78 6.38Q174.78 6.66 174.70 6.96L174.70 6.96L174.70 6.96Q174.62 7.25 174.47 7.54L174.47 7.54L174.47 7.54Q174.33 7.83 174.13 8.09L174.13 8.09L174.13 8.09Q173.94 8.36 173.70 8.55L173.70 8.55L173.70 8.55Q173.33 8.50 173.07 8.22L173.07 8.22L173.07 8.22Q172.80 7.95 172.73 7.59L172.73 7.59L172.73 7.59Q173.22 7.18 173.51 6.74L173.51 6.74L173.51 6.74Q173.80 6.30 173.80 5.94L173.80 5.94L173.80 5.94Q173.80 5.32 173.03 5.32L173.03 5.32L173.03 5.32Q172.70 5.32 172.36 5.45L172.36 5.45L172.36 5.45Q172.02 5.59 171.67 5.82L171.67 5.82L171.67 5.82Q171.32 6.06 170.99 6.40L170.99 6.40L170.99 6.40Q170.66 6.73 170.38 7.14L170.38 7.14L170.38 7.14Q168.43 9.94 168.43 12.87L168.43 12.87L168.43 12.87Q168.43 13.90 168.76 14.53L168.76 14.53L168.76 14.53Q169.08 15.16 169.61 15.27L169.61 15.27L169.61 15.27Q170.21 15.13 171.14 14.50L171.14 14.50L171.14 14.50Q172.06 13.87 173.15 12.87L173.15 12.87L173.15 12.87Q173.29 13.01 173.32 13.16L173.32 13.16L173.32 13.16Q172.91 13.69 172.48 14.18L172.48 14.18L172.48 14.18Q172.05 14.67 171.62 15.08L171.62 15.08L171.62 15.08Q171.19 15.48 170.78 15.79L170.78 15.79L170.78 15.79Q170.37 16.10 170.02 16.27L170.02 16.27L170.02 16.27Q168.28 16.24 167.38 15.27L167.38 15.27L167.38 15.27Q166.49 14.31 166.49 12.43ZM181.87 12.43L181.87 12.43L181.87 12.43Q181.87 11.45 182.10 10.51L182.10 10.51L182.10 10.51Q182.34 9.56 182.76 8.71L182.76 8.71L182.76 8.71Q183.18 7.87 183.76 7.16L183.76 7.16L183.76 7.16Q184.34 6.45 185.03 5.94L185.03 5.94L185.03 5.94Q185.72 5.42 186.51 5.13L186.51 5.13L186.51 5.13Q187.29 4.84 188.12 4.84L188.12 4.84L188.12 4.84Q189.08 4.84 189.62 5.25L189.62 5.25L189.62 5.25Q190.16 5.66 190.16 6.38L190.16 6.38L190.16 6.38Q190.16 6.66 190.09 6.96L190.09 6.96L190.09 6.96Q190.01 7.25 189.86 7.54L189.86 7.54L189.86 7.54Q189.71 7.83 189.52 8.09L189.52 8.09L189.52 8.09Q189.32 8.36 189.08 8.55L189.08 8.55L189.08 8.55Q188.72 8.50 188.45 8.22L188.45 8.22L188.45 8.22Q188.19 7.95 188.12 7.59L188.12 7.59L188.12 7.59Q188.61 7.18 188.89 6.74L188.89 6.74L188.89 6.74Q189.18 6.30 189.18 5.94L189.18 5.94L189.18 5.94Q189.18 5.32 188.41 5.32L188.41 5.32L188.41 5.32Q188.09 5.32 187.75 5.45L187.75 5.45L187.75 5.45Q187.40 5.59 187.05 5.82L187.05 5.82L187.05 5.82Q186.70 6.06 186.38 6.40L186.38 6.40L186.38 6.40Q186.05 6.73 185.77 7.14L185.77 7.14L185.77 7.14Q183.82 9.94 183.82 12.87L183.82 12.87L183.82 12.87Q183.82 13.90 184.14 14.53L184.14 14.53L184.14 14.53Q184.46 15.16 185.00 15.27L185.00 15.27L185.00 15.27Q185.60 15.13 186.52 14.50L186.52 14.50L186.52 14.50Q187.45 13.87 188.54 12.87L188.54 12.87L188.54 12.87Q188.68 13.01 188.71 13.16L188.71 13.16L188.71 13.16Q188.30 13.69 187.87 14.18L187.87 14.18L187.87 14.18Q187.43 14.67 187.00 15.08L187.00 15.08L187.00 15.08Q186.58 15.48 186.16 15.79L186.16 15.79L186.16 15.79Q185.75 16.10 185.40 16.27L185.40 16.27L185.40 16.27Q183.67 16.24 182.77 15.27L182.77 15.27L182.77 15.27Q181.87 14.31 181.87 12.43ZM197.32 16.24L197.32 16.24L197.32 16.24Q196.64 16.04 196.38 15.85L196.38 15.85L196.38 15.85Q196.13 15.65 196.13 15.36L196.13 15.36L196.13 15.36Q196.13 15.13 196.25 14.73L196.25 14.73L196.25 14.73Q196.38 14.32 196.62 13.77L196.62 13.77L196.62 13.77Q196.87 13.22 197.21 12.54L197.21 12.54L197.21 12.54Q197.55 11.87 197.99 11.10L197.99 11.10L197.99 11.10Q197.62 11.09 197.34 11.08L197.34 11.08L197.34 11.08Q197.05 11.07 196.87 11.07L196.87 11.07L196.87 11.07Q196.95 10.86 197.34 10.71L197.34 10.71L197.34 10.71Q197.74 10.56 198.38 10.44L198.38 10.44L198.38 10.44Q198.93 9.53 199.55 8.71L199.55 8.71L199.55 8.71Q200.17 7.88 200.80 7.19L200.80 7.19L200.80 7.19Q201.43 6.50 202.06 5.97L202.06 5.97L202.06 5.97Q202.69 5.45 203.27 5.14L203.27 5.14L203.27 5.14Q203.28 5.04 203.29 4.97L203.29 4.97L203.29 4.97Q203.29 4.90 203.29 4.87L203.29 4.87L203.29 4.87Q203.49 4.87 203.82 4.97L203.82 4.97L203.82 4.97Q204.15 5.07 204.46 5.21L204.46 5.21L204.46 5.21Q204.78 5.35 205.02 5.49L205.02 5.49L205.02 5.49Q205.27 5.64 205.30 5.74L205.30 5.74L205.30 5.74Q204.83 6.55 204.39 8.17L204.39 8.17L204.39 8.17Q203.94 9.79 203.64 12.04L203.64 12.04L203.64 12.04Q203.57 12.60 203.52 13.31L203.52 13.31L203.52 13.31Q203.48 14.03 203.48 14.91L203.48 14.91L203.48 14.91Q203.48 15.22 203.48 15.54L203.48 15.54L203.48 15.54Q203.48 15.86 203.50 16.21L203.50 16.21L203.50 16.21Q203.48 16.23 203.45 16.23L203.45 16.23L203.45 16.23Q203.42 16.23 203.34 16.23L203.34 16.23L203.34 16.23Q203.14 16.23 202.88 16.16L202.88 16.16L202.88 16.16Q202.62 16.10 202.38 16.01L202.38 16.01L202.38 16.01Q202.13 15.92 201.96 15.81L201.96 15.81L201.96 15.81Q201.78 15.69 201.74 15.61L201.74 15.61L201.74 15.61Q201.73 15.43 201.73 15.25L201.73 15.25L201.73 15.25Q201.73 15.08 201.73 14.88L201.73 14.88L201.73 14.88Q201.73 14.01 201.79 13.12L201.79 13.12L201.79 13.12Q201.85 12.22 202.01 11.27L202.01 11.27L202.01 11.27Q201.81 11.26 201.49 11.23L201.49 11.23L201.49 11.23Q201.17 11.21 200.77 11.20L200.77 11.20L200.77 11.20Q200.37 11.19 199.91 11.16L199.91 11.16L199.91 11.16Q199.46 11.14 199.02 11.13L199.02 11.13L199.02 11.13Q198.69 11.76 198.39 12.38L198.39 12.38L198.39 12.38Q198.10 13.01 197.89 13.64L197.89 13.64L197.89 13.64Q197.65 14.31 197.50 14.98L197.50 14.98L197.50 14.98Q197.36 15.65 197.32 16.24ZM202.72 7.83L202.72 7.83L202.72 7.83Q202.78 7.63 202.85 7.29L202.85 7.29L202.85 7.29Q202.93 6.94 203 6.57L203 6.57L203 6.57Q202.65 6.69 202.22 7.03L202.22 7.03L202.22 7.03Q201.80 7.36 201.34 7.86L201.34 7.86L201.34 7.86Q200.89 8.36 200.42 8.98L200.42 8.98L200.42 8.98Q199.95 9.60 199.51 10.30L199.51 10.30L199.51 10.30Q200.69 10.21 202.19 10.18L202.19 10.18L202.19 10.18Q202.30 9.59 202.43 9.01L202.43 9.01L202.43 9.01Q202.57 8.43 202.72 7.83ZM221.70 5.74L221.70 5.74L221.70 5.74Q221.75 5.98 221.77 6.07L221.77 6.07L221.77 6.07Q221.79 6.16 221.79 6.31L221.79 6.31L221.79 6.31Q221.79 6.78 221.58 7.18L221.58 7.18L221.58 7.18Q221.38 7.57 221.03 7.74L221.03 7.74L221.03 7.74Q220.75 7.36 220.35 7.09L220.35 7.09L220.35 7.09Q219.94 6.82 219.46 6.64L219.46 6.64L219.46 6.64Q218.97 6.47 218.46 6.38L218.46 6.38L218.46 6.38Q217.94 6.30 217.45 6.30L217.45 6.30L217.45 6.30Q216.96 6.30 216.53 6.38L216.53 6.38L216.53 6.38Q216.10 6.45 215.77 6.59L215.77 6.59L215.77 6.59Q215.45 6.72 215.26 6.92L215.26 6.92L215.26 6.92Q215.07 7.11 215.07 7.36L215.07 7.36L215.07 7.36Q215.11 7.67 215.45 7.99L215.45 7.99L215.45 7.99Q215.78 8.30 216.27 8.60L216.27 8.60L216.27 8.60Q216.76 8.90 217.36 9.20L217.36 9.20L217.36 9.20Q217.95 9.49 218.53 9.76L218.53 9.76L218.53 9.76Q219.24 10.09 219.76 10.38L219.76 10.38L219.76 10.38Q220.28 10.67 220.61 11.01L220.61 11.01L220.61 11.01Q220.95 11.35 221.12 11.79L221.12 11.79L221.12 11.79Q221.28 12.22 221.28 12.84L221.28 12.84L221.28 12.84Q221.28 13.55 221.05 14.18L221.05 14.18L221.05 14.18Q220.81 14.80 220.35 15.26L220.35 15.26L220.35 15.26Q219.90 15.72 219.25 15.98L219.25 15.98L219.25 15.98Q218.61 16.24 217.81 16.24L217.81 16.24L217.81 16.24Q217.03 16.24 216.12 16.00L216.12 16.00L216.12 16.00Q215.21 15.76 214.42 15.35L214.42 15.35L214.42 15.35Q213.63 14.94 213.10 14.40L213.10 14.40L213.10 14.40Q212.58 13.86 212.58 13.26L212.58 13.26L212.58 13.26Q212.58 12.98 212.74 12.54L212.74 12.54L212.74 12.54Q212.90 12.11 213.32 11.63L213.32 11.63L213.32 11.63Q213.36 12.05 213.77 12.63L213.77 12.63L213.77 12.63Q214.19 13.20 215.01 13.69L215.01 13.69L215.01 13.69Q215.78 14.14 216.60 14.34L216.60 14.34L216.60 14.34Q217.42 14.55 218.13 14.55L218.13 14.55L218.13 14.55Q218.92 14.55 219.41 14.35L219.41 14.35L219.41 14.35Q219.90 14.15 220.18 13.88L220.18 13.88L220.18 13.88Q220.46 13.61 220.57 13.33L220.57 13.33L220.57 13.33Q220.68 13.05 220.70 12.88L220.70 12.88L220.70 12.88Q220.68 12.60 220.44 12.34L220.44 12.34L220.44 12.34Q220.19 12.08 219.78 11.84L219.78 11.84L219.78 11.84Q219.37 11.59 218.82 11.34L218.82 11.34L218.82 11.34Q218.27 11.09 217.69 10.84L217.69 10.84L217.69 10.84Q216.80 10.44 216.17 10.10L216.17 10.10L216.17 10.10Q215.53 9.76 215.12 9.40L215.12 9.40L215.12 9.40Q214.70 9.04 214.51 8.65L214.51 8.65L214.51 8.65Q214.33 8.26 214.33 7.76L214.33 7.76L214.33 7.76Q214.33 6.97 214.80 6.27L214.80 6.27L214.80 6.27Q215.28 5.57 216.17 5.21L216.17 5.21L216.17 5.21Q216.62 5.01 217.13 4.93L217.13 4.93L217.13 4.93Q217.64 4.84 218.13 4.84L218.13 4.84L218.13 4.84Q219.06 4.84 219.94 5.10L219.94 5.10L219.94 5.10Q220.82 5.35 221.70 5.74ZM229.82 14.38L229.82 14.38L229.82 14.38Q229.82 13.87 229.98 13.07L229.98 13.07L229.98 13.07Q230.15 12.26 230.40 11.33L230.40 11.33L230.40 11.33Q230.66 10.40 231.00 9.43L231.00 9.43L231.00 9.43Q231.34 8.46 231.69 7.60L231.69 7.60L231.69 7.60Q232.04 6.75 232.37 6.10L232.37 6.10L232.37 6.10Q232.71 5.46 232.97 5.18L232.97 5.18L232.97 5.18Q233.11 5.19 233.34 5.29L233.34 5.29L233.34 5.29Q233.58 5.38 233.81 5.50L233.81 5.50L233.81 5.50Q234.05 5.63 234.25 5.78L234.25 5.78L234.25 5.78Q234.44 5.92 234.50 6.05L234.50 6.05L234.50 6.05Q234.09 6.41 233.69 7.15L233.69 7.15L233.69 7.15Q233.30 7.88 232.92 8.82L232.92 8.82L232.92 8.82Q232.55 9.76 232.23 10.80L232.23 10.80L232.23 10.80Q231.91 11.84 231.67 12.82L231.67 12.82L231.67 12.82Q231.43 13.80 231.30 14.64L231.30 14.64L231.30 14.64Q231.17 15.48 231.17 16.00L231.17 16.00L231.17 16.00Q231.17 16.24 231.21 16.30L231.21 16.30L231.21 16.30Q230.90 16.28 230.76 16.19L230.76 16.19L230.76 16.19Q230.62 16.10 230.54 16.00L230.54 16.00L230.54 16.00Q230.47 15.89 230.40 15.79L230.40 15.79L230.40 15.79Q230.34 15.68 230.22 15.62L230.22 15.62L230.22 15.62Q230.12 15.58 230.05 15.43L230.05 15.43L230.05 15.43Q229.98 15.27 229.93 15.09L229.93 15.09L229.93 15.09Q229.88 14.90 229.85 14.70L229.85 14.70L229.85 14.70Q229.82 14.50 229.82 14.38ZM247.27 4.98L247.27 4.98L247.27 4.98Q247.53 5.10 247.81 5.27L247.81 5.27L247.81 5.27Q248.09 5.45 248.33 5.63L248.33 5.63L248.33 5.63Q248.57 5.81 248.73 5.98L248.73 5.98L248.73 5.98Q248.89 6.16 248.91 6.27L248.91 6.27L248.91 6.27Q248.67 6.22 248.43 6.20L248.43 6.20L248.43 6.20Q248.19 6.17 248.00 6.17L248.00 6.17L248.00 6.17Q247.37 6.17 246.74 6.48L246.74 6.48L246.74 6.48Q246.12 6.79 245.56 7.32L245.56 7.32L245.56 7.32Q245.00 7.85 244.52 8.57L244.52 8.57L244.52 8.57Q244.05 9.28 243.70 10.09L243.70 10.09L243.70 10.09Q243.36 10.91 243.17 11.77L243.17 11.77L243.17 11.77Q242.97 12.64 242.97 13.48L242.97 13.48L242.97 13.48Q242.97 14.57 243.33 15.11L243.33 15.11L243.33 15.11Q243.70 15.64 244.40 15.64L244.40 15.64L244.40 15.64Q244.73 15.64 245.13 15.51L245.13 15.51L245.13 15.51Q245.52 15.37 245.92 15.13L245.92 15.13L245.92 15.13Q246.33 14.90 246.72 14.56L246.72 14.56L246.72 14.56Q247.11 14.22 247.45 13.82L247.45 13.82L247.45 13.82Q247.94 13.23 248.33 12.48L248.33 12.48L248.33 12.48Q248.72 11.73 249.00 10.89L249.00 10.89L249.00 10.89Q249.27 10.05 249.42 9.16L249.42 9.16L249.42 9.16Q249.56 8.27 249.56 7.42L249.56 7.42L249.56 7.42Q249.56 7.08 249.55 6.85L249.55 6.85L249.55 6.85Q249.54 6.62 249.51 6.46L249.51 6.46L249.51 6.46Q249.49 6.30 249.48 6.20L249.48 6.20L249.48 6.20Q249.47 6.10 249.45 6.03L249.45 6.03L249.45 6.03Q249.62 6.12 249.82 6.24L249.82 6.24L249.82 6.24Q250.03 6.36 250.20 6.59L250.20 6.59L250.20 6.59Q250.38 6.82 250.49 7.20L250.49 7.20L250.49 7.20Q250.61 7.57 250.61 8.18L250.61 8.18L250.61 8.18Q250.61 9.16 250.38 10.10L250.38 10.10L250.38 10.10Q250.15 11.05 249.74 11.90L249.74 11.90L249.74 11.90Q249.33 12.75 248.77 13.50L248.77 13.50L248.77 13.50Q248.21 14.24 247.56 14.80L247.56 14.80L247.56 14.80Q246.72 15.54 245.77 15.95L245.77 15.95L245.77 15.95Q244.82 16.35 243.94 16.35L243.94 16.35L243.94 16.35Q242.65 16.35 241.97 15.53L241.97 15.53L241.97 15.53Q241.29 14.71 241.29 13.12L241.29 13.12L241.29 13.12Q241.29 12.26 241.48 11.31L241.48 11.31L241.48 11.31Q241.67 10.36 242.01 9.44L242.01 9.44L242.01 9.44Q242.35 8.51 242.83 7.68L242.83 7.68L242.83 7.68Q243.31 6.85 243.87 6.21L243.87 6.21L243.87 6.21Q244.44 5.57 245.09 5.19L245.09 5.19L245.09 5.19Q245.74 4.82 246.43 4.82L246.43 4.82L246.43 4.82Q246.65 4.82 246.85 4.85L246.85 4.85L246.85 4.85Q247.04 4.89 247.27 4.98ZM259.18 16.24L259.18 16.24L259.18 16.24Q258.38 16.00 258.10 15.79L258.10 15.79L258.10 15.79Q257.82 15.57 257.82 15.19L257.82 15.19L257.82 15.19Q257.82 14.77 258.02 14.01L258.02 14.01L258.02 14.01Q258.22 13.24 258.53 12.31L258.53 12.31L258.53 12.31Q258.85 11.37 259.25 10.35L259.25 10.35L259.25 10.35Q259.66 9.32 260.08 8.39L260.08 8.39L260.08 8.39Q260.50 7.45 260.90 6.67L260.90 6.67L260.90 6.67Q261.30 5.89 261.60 5.46L261.60 5.46L261.51 4.87L261.51 4.87Q261.70 4.87 262.05 4.97L262.05 4.97L262.05 4.97Q262.40 5.07 262.76 5.21L262.76 5.21L262.76 5.21Q263.12 5.35 263.39 5.49L263.39 5.49L263.39 5.49Q263.66 5.64 263.69 5.74L263.69 5.74L263.69 5.74Q263.62 6.08 263.58 6.76L263.58 6.76L263.58 6.76Q263.54 7.43 263.54 8.20L263.54 8.20L263.54 8.20Q263.54 9.73 263.65 11.19L263.65 11.19L263.65 11.19Q263.77 12.66 264.21 14.17L264.21 14.17L264.21 14.17Q264.43 13.05 264.69 11.94L264.69 11.94L264.69 11.94Q264.95 10.82 265.23 9.81L265.23 9.81L265.23 9.81Q265.51 8.79 265.79 7.92L265.79 7.92L265.79 7.92Q266.07 7.06 266.33 6.40L266.33 6.40L266.33 6.40Q266.59 5.75 266.81 5.38L266.81 5.38L266.81 5.38Q267.04 5.01 267.22 4.98L267.22 4.98L267.22 4.98Q267.37 5.01 267.55 5.10L267.55 5.10L267.55 5.10Q267.74 5.19 267.90 5.32L267.90 5.32L267.90 5.32Q268.07 5.45 268.21 5.60L268.21 5.60L268.21 5.60Q268.35 5.75 268.44 5.91L268.44 5.91L268.44 5.91Q267.99 6.09 267.55 6.76L267.55 6.76L267.55 6.76Q267.11 7.43 266.71 8.39L266.71 8.39L266.71 8.39Q266.31 9.35 265.96 10.47L265.96 10.47L265.96 10.47Q265.62 11.59 265.36 12.68L265.36 12.68L265.36 12.68Q265.10 13.76 264.96 14.69L264.96 14.69L264.96 14.69Q264.81 15.61 264.80 16.17L264.80 16.17L264.80 16.17Q264.80 16.20 264.81 16.21L264.81 16.21L264.81 16.21Q264.77 16.23 264.72 16.23L264.72 16.23L264.72 16.23Q264.67 16.23 264.63 16.23L264.63 16.23L264.63 16.23Q263.98 16.23 263.49 16.07L263.49 16.07L263.49 16.07Q262.99 15.90 262.84 15.61L262.84 15.61L262.84 15.61Q262.54 14.43 262.35 13.34L262.35 13.34L262.35 13.34Q262.15 12.25 262.02 11.16L262.02 11.16L262.02 11.16Q261.88 10.07 261.81 8.95L261.81 8.95L261.81 8.95Q261.73 7.84 261.69 6.62L261.69 6.62L261.69 6.62Q261.42 7.04 261.13 7.72L261.13 7.72L261.13 7.72Q260.83 8.40 260.55 9.21L260.55 9.21L260.55 9.21Q260.27 10.02 260.01 10.92L260.01 10.92L260.01 10.92Q259.76 11.82 259.56 12.67L259.56 12.67L259.56 12.67Q259.36 13.52 259.25 14.29L259.25 14.29L259.25 14.29Q259.14 15.05 259.14 15.61L259.14 15.61L259.14 15.61Q259.14 15.90 259.15 16.03L259.15 16.03L259.15 16.03Q259.15 16.16 259.18 16.24ZM273.32 17.54L273.32 17.54L273.32 17.54Q273.24 17.47 273.17 17.31L273.17 17.31L273.17 17.31Q273.10 17.15 273.10 17.01L273.10 17.01L273.10 17.01Q273.80 16.41 274.10 15.86L274.10 15.86L274.10 15.86Q274.40 15.32 274.40 14.67L274.40 14.67L274.40 14.67Q274.40 14.25 274.37 13.95L274.37 13.95L274.37 13.95Q274.33 13.65 274.23 13.26L274.23 13.26L274.23 13.26Q274.58 13.29 274.93 13.38L274.93 13.38L274.93 13.38Q275.27 13.47 275.54 13.60L275.54 13.60L275.54 13.60Q275.81 13.73 276.00 13.91L276.00 13.91L276.00 13.91Q276.18 14.08 276.22 14.25L276.22 14.25L276.22 14.25Q275.56 16.58 273.32 17.54ZM297.96 6.69L297.96 6.69L297.96 6.69Q297.40 6.69 297.10 6.38L297.10 6.38L297.10 6.38Q296.80 6.06 296.80 5.61L296.80 5.61L296.80 5.61Q296.80 5.50 296.84 5.35L296.84 5.35L296.84 5.35Q296.87 5.19 296.93 5.08L296.93 5.08L296.93 5.08Q297.11 5.17 297.47 5.20L297.47 5.20L297.47 5.20Q297.82 5.24 298.30 5.24L298.30 5.24L298.30 5.24Q299.01 5.24 299.92 5.17L299.92 5.17L299.92 5.17Q300.82 5.11 301.64 5.04L301.64 5.04L301.64 5.04Q302.47 4.97 303.10 4.91L303.10 4.91L303.10 4.91Q303.73 4.84 303.91 4.84L303.91 4.84L303.91 4.84Q304.43 4.84 304.66 5.23L304.66 5.23L304.66 5.23Q304.89 5.61 305.00 6.26L305.00 6.26L305.00 6.26Q304.64 6.23 304.28 6.21L304.28 6.21L304.28 6.21Q303.93 6.19 303.67 6.19L303.67 6.19L303.67 6.19Q303.23 6.19 302.77 6.22L302.77 6.22L302.77 6.22Q302.32 6.24 301.85 6.30L301.85 6.30L301.85 6.30Q301.66 6.71 301.42 7.26L301.42 7.26L301.42 7.26Q301.18 7.81 300.95 8.41L300.95 8.41L300.95 8.41Q300.72 9.02 300.51 9.61L300.51 9.61L300.51 9.61Q300.30 10.21 300.15 10.68L300.15 10.68L300.15 10.68Q299.84 11.61 299.61 12.39L299.61 12.39L299.61 12.39Q299.38 13.17 299.20 13.85L299.20 13.85L299.20 13.85Q299.03 14.53 298.90 15.15L298.90 15.15L298.90 15.15Q298.77 15.76 298.68 16.35L298.68 16.35L298.68 16.35Q297.74 16.21 297.11 15.18L297.11 15.18L297.11 15.18Q297.22 14.74 297.38 14.23L297.38 14.23L297.38 14.23Q297.54 13.72 297.76 13.07L297.76 13.07L297.76 13.07Q297.98 12.42 298.27 11.59L298.27 11.59L298.27 11.59Q298.56 10.77 298.94 9.72L298.94 9.72L298.94 9.72Q299.08 9.32 299.24 8.90L299.24 8.90L299.24 8.90Q299.39 8.47 299.54 8.05L299.54 8.05L299.54 8.05Q299.68 7.63 299.80 7.24L299.80 7.24L299.80 7.24Q299.92 6.85 300.01 6.52L300.01 6.52L300.01 6.52Q299.42 6.59 298.89 6.64L298.89 6.64L298.89 6.64Q298.37 6.69 297.96 6.69ZM315.88 14.36L315.88 14.36L315.88 14.36Q315.88 13.78 316.08 12.85L316.08 12.85L316.08 12.85Q316.27 11.93 316.60 10.88L316.60 10.88L316.60 10.88Q315.67 10.95 314.74 11.06L314.74 11.06L314.74 11.06Q313.81 11.17 313.12 11.19L313.12 11.19L313.12 11.19Q312.49 12.66 312.12 13.89L312.12 13.89L312.12 13.89Q311.75 15.13 311.54 16.31L311.54 16.31L311.54 16.31Q311.01 16.18 310.66 15.87L310.66 15.87L310.66 15.87Q310.31 15.55 310.02 15.08L310.02 15.08L310.02 15.08Q310.13 14.85 310.28 14.50L310.28 14.50L310.28 14.50Q310.42 14.15 310.63 13.66L310.63 13.66L310.63 13.66Q310.83 13.16 311.09 12.50L311.09 12.50L311.09 12.50Q311.35 11.83 311.68 10.95L311.68 10.95L311.68 10.95Q311.22 10.75 311.07 10.40L311.07 10.40L311.07 10.40Q311.14 10.35 311.38 10.28L311.38 10.28L311.38 10.28Q311.63 10.22 311.99 10.15L311.99 10.15L312.17 9.70L312.17 9.70Q312.47 8.95 312.66 8.43L312.66 8.43L312.66 8.43Q312.84 7.91 312.98 7.41L312.98 7.41L312.98 7.41Q313.11 6.92 313.23 6.31L313.23 6.31L313.23 6.31Q313.35 5.71 313.52 4.79L313.52 4.79L313.52 4.79Q314.10 4.90 314.59 5.31L314.59 5.31L314.59 5.31Q315.07 5.71 315.42 6.29L315.42 6.29L315.42 6.29Q315.29 6.45 315.11 6.79L315.11 6.79L315.11 6.79Q314.93 7.13 314.71 7.59L314.71 7.59L314.71 7.59Q314.50 8.06 314.24 8.64L314.24 8.64L314.24 8.64Q313.99 9.23 313.70 9.87L313.70 9.87L313.70 9.87Q314.57 9.76 315.46 9.66L315.46 9.66L315.46 9.66Q316.34 9.56 317.03 9.52L317.03 9.52L317.03 9.52Q317.28 8.79 317.56 8.10L317.56 8.10L317.56 8.10Q317.83 7.41 318.09 6.83L318.09 6.83L318.09 6.83Q318.36 6.26 318.61 5.82L318.61 5.82L318.61 5.82Q318.85 5.39 319.05 5.18L319.05 5.18L319.05 5.18Q319.19 5.19 319.42 5.29L319.42 5.29L319.42 5.29Q319.65 5.38 319.89 5.50L319.89 5.50L319.89 5.50Q320.12 5.63 320.32 5.78L320.32 5.78L320.32 5.78Q320.52 5.92 320.59 6.05L320.59 6.05L320.59 6.05Q320.33 6.29 320.08 6.66L320.08 6.66L320.08 6.66Q319.83 7.04 319.59 7.53L319.59 7.53L319.59 7.53Q319.34 8.02 319.10 8.60L319.10 8.60L319.10 8.60Q318.86 9.17 318.65 9.79L318.65 9.79L318.65 9.79Q318.93 10.04 318.93 10.42L318.93 10.42L318.93 10.42Q318.93 10.68 318.82 10.91L318.82 10.91L318.82 10.91Q318.70 10.88 318.57 10.87L318.57 10.87L318.57 10.87Q318.44 10.86 318.30 10.85L318.30 10.85L318.30 10.85Q318.07 11.61 317.87 12.35L317.87 12.35L317.87 12.35Q317.67 13.09 317.54 13.76L317.54 13.76L317.54 13.76Q317.41 14.43 317.33 14.99L317.33 14.99L317.33 14.99Q317.25 15.55 317.25 15.93L317.25 15.93L317.25 15.93Q317.25 16.07 317.26 16.16L317.26 16.16L317.26 16.16Q317.27 16.24 317.28 16.30L317.28 16.30L317.28 16.30Q316.97 16.28 316.83 16.19L316.83 16.19L316.83 16.19Q316.69 16.10 316.62 16.00L316.62 16.00L316.62 16.00Q316.55 15.89 316.50 15.79L316.50 15.79L316.50 15.79Q316.44 15.68 316.32 15.62L316.32 15.62L316.32 15.62Q316.22 15.58 316.13 15.43L316.13 15.43L316.13 15.43Q316.05 15.27 315.99 15.08L315.99 15.08L315.99 15.08Q315.94 14.88 315.91 14.69L315.91 14.69L315.91 14.69Q315.88 14.49 315.88 14.36ZM332.65 9.21L332.65 9.21L332.65 9.21Q333.12 9.21 333.38 9.46L333.38 9.46L333.38 9.46Q333.63 9.72 333.63 10.16L333.63 10.16L333.63 10.16Q333.63 10.28 333.61 10.39L333.61 10.39L333.61 10.39Q333.59 10.51 333.56 10.60L333.56 10.60L333.56 10.60Q333.38 10.57 333.16 10.55L333.16 10.55L333.16 10.55Q332.93 10.53 332.63 10.53L332.63 10.53L332.63 10.53Q332.02 10.53 331.41 10.63L331.41 10.63L331.41 10.63Q330.79 10.74 330.23 10.81L330.23 10.81L330.23 10.81Q329.91 11.55 329.64 12.24L329.64 12.24L329.64 12.24Q329.38 12.94 329.19 13.51L329.19 13.51L329.19 13.51Q329 14.08 328.90 14.50L328.90 14.50L328.90 14.50Q328.79 14.92 328.78 15.13L328.78 15.13L328.78 15.13Q329.91 14.90 331.07 14.73L331.07 14.73L331.07 14.73Q332.22 14.56 333.49 14.48L333.49 14.48L333.49 14.48Q333.65 14.71 333.75 14.99L333.75 14.99L333.75 14.99Q333.86 15.27 333.86 15.60L333.86 15.60L333.86 15.60Q333.86 15.68 333.86 15.78L333.86 15.78L333.86 15.78Q333.86 15.88 333.83 15.97L333.83 15.97L333.83 15.97Q333.44 15.96 333.00 15.95L333.00 15.95L333.00 15.95Q332.57 15.95 331.87 15.95L331.87 15.95L331.87 15.95Q331.41 15.95 331.00 15.97L331.00 15.97L331.00 15.97Q330.58 15.99 330.16 16.03L330.16 16.03L330.16 16.03Q329.74 16.07 329.27 16.14L329.27 16.14L329.27 16.14Q328.80 16.21 328.22 16.31L328.22 16.31L328.22 16.31Q327.57 16.06 326.97 15.08L326.97 15.08L326.97 15.08Q327.21 14.57 327.64 13.54L327.64 13.54L327.64 13.54Q328.06 12.52 328.72 10.79L328.72 10.79L328.72 10.79Q328.09 10.60 327.89 10.09L327.89 10.09L327.89 10.09Q327.96 10.02 328.30 9.92L328.30 9.92L328.30 9.92Q328.64 9.81 329.13 9.70L329.13 9.70L329.13 9.70Q329.34 9.16 329.48 8.75L329.48 8.75L329.48 8.75Q329.63 8.34 329.74 7.99L329.74 7.99L329.74 7.99Q329.85 7.63 329.95 7.29L329.95 7.29L329.95 7.29Q330.04 6.94 330.12 6.54L330.12 6.54L330.12 6.54Q329.63 6.51 329.35 6.27L329.35 6.27L329.35 6.27Q329.07 6.02 329.07 5.63L329.07 5.63L329.07 5.63Q329.07 5.52 329.11 5.36L329.11 5.36L329.11 5.36Q329.14 5.21 329.18 5.10L329.18 5.10L329.18 5.10Q329.46 5.14 329.72 5.15L329.72 5.15L329.72 5.15Q329.98 5.17 330.40 5.17L330.40 5.17L330.40 5.17Q331.28 5.17 332.05 5.12L332.05 5.12L332.05 5.12Q332.82 5.07 333.45 5.01L333.45 5.01L333.45 5.01Q334.07 4.96 334.52 4.91L334.52 4.91L334.52 4.91Q334.96 4.86 335.20 4.86L335.20 4.86L335.20 4.86Q335.52 4.86 335.78 5.19L335.78 5.19L335.78 5.19Q336.03 5.53 336.15 6.15L336.15 6.15L336.15 6.15Q335.72 6.10 335.45 6.09L335.45 6.09L335.45 6.09Q335.17 6.08 334.96 6.08L334.96 6.08L334.96 6.08Q334.19 6.08 333.56 6.15L333.56 6.15L333.56 6.15Q332.92 6.23 332.33 6.31L332.33 6.31L332.33 6.31Q332.25 6.44 332.14 6.64L332.14 6.64L332.14 6.64Q332.04 6.83 331.87 7.18L331.87 7.18L331.87 7.18Q331.70 7.53 331.46 8.06L331.46 8.06L331.46 8.06Q331.21 8.60 330.86 9.39L330.86 9.39L330.86 9.39Q331.39 9.31 331.86 9.26L331.86 9.26L331.86 9.26Q332.33 9.21 332.65 9.21ZM351.92 7.46L351.92 7.46L351.92 7.46Q351.92 8.13 351.62 8.73L351.62 8.73L351.62 8.73Q351.32 9.32 350.78 9.79L350.78 9.79L350.78 9.79Q350.25 10.26 349.54 10.58L349.54 10.58L349.54 10.58Q348.82 10.91 347.98 11.02L347.98 11.02L347.98 11.02Q348.19 11.65 348.50 12.31L348.50 12.31L348.50 12.31Q348.80 12.98 349.15 13.59L349.15 13.59L349.15 13.59Q349.50 14.21 349.87 14.73L349.87 14.73L349.87 14.73Q350.25 15.25 350.62 15.58L350.62 15.58L350.62 15.58Q350.55 15.72 350.41 15.86L350.41 15.86L350.41 15.86Q350.28 16.00 350.11 16.12L350.11 16.12L350.11 16.12Q349.93 16.24 349.74 16.32L349.74 16.32L349.74 16.32Q349.55 16.39 349.38 16.39L349.38 16.39L349.38 16.39Q349.08 16.39 348.80 16.10L348.80 16.10L348.80 16.10Q348.52 15.81 348.23 15.17L348.23 15.17L348.23 15.17Q347.94 14.53 347.63 13.52L347.63 13.52L347.63 13.52Q347.31 12.50 346.93 11.07L346.93 11.07L346.93 11.07Q346.78 11.07 346.63 11.07L346.63 11.07L346.63 11.07Q346.47 11.07 346.39 11.05L346.39 11.05L346.39 11.05Q346.29 10.99 346.18 10.85L346.18 10.85L346.18 10.85Q345.80 11.66 345.51 12.38L345.51 12.38L345.51 12.38Q345.21 13.09 344.98 13.76L344.98 13.76L344.98 13.76Q344.75 14.42 344.58 15.04L344.58 15.04L344.58 15.04Q344.40 15.67 344.27 16.31L344.27 16.31L344.27 16.31Q343.80 16.20 343.45 15.90L343.45 15.90L343.45 15.90Q343.10 15.61 342.79 15.08L342.79 15.08L342.79 15.08Q342.85 14.95 342.91 14.83L342.91 14.83L342.91 14.83Q342.97 14.71 343.07 14.50L343.07 14.50L343.07 14.50Q343.17 14.28 343.32 13.94L343.32 13.94L343.32 13.94Q343.46 13.61 343.71 13.05L343.71 13.05L343.71 13.05Q343.95 12.49 344.30 11.68L344.30 11.68L344.30 11.68Q344.64 10.86 345.13 9.70L345.13 9.70L345.13 9.70Q345.35 9.18 345.51 8.79L345.51 8.79L345.51 8.79Q345.67 8.40 345.80 8.04L345.80 8.04L345.80 8.04Q345.93 7.69 346.03 7.33L346.03 7.33L346.03 7.33Q346.14 6.97 346.25 6.51L346.25 6.51L346.25 6.51Q345.60 6.73 345.05 7.01L345.05 7.01L345.05 7.01Q344.50 7.28 344.13 7.59L344.13 7.59L344.13 7.59Q344.01 7.50 343.88 7.34L343.88 7.34L343.88 7.34Q343.74 7.17 343.63 6.96L343.63 6.96L343.63 6.96Q343.52 6.76 343.43 6.55L343.43 6.55L343.43 6.55Q343.35 6.34 343.34 6.17L343.34 6.17L343.34 6.17Q343.76 5.89 344.37 5.66L344.37 5.66L344.37 5.66Q344.97 5.42 345.66 5.24L345.66 5.24L345.66 5.24Q346.35 5.07 347.06 4.97L347.06 4.97L347.06 4.97Q347.77 4.87 348.39 4.87L348.39 4.87L348.39 4.87Q350.07 4.87 350.99 5.56L350.99 5.56L350.99 5.56Q351.92 6.26 351.92 7.46ZM348.33 6.02L348.50 6.29L348.50 6.29Q348.40 6.41 348.19 6.79L348.19 6.79L348.19 6.79Q347.98 7.17 347.71 7.69L347.71 7.69L347.71 7.69Q347.44 8.22 347.14 8.83L347.14 8.83L347.14 8.83Q346.84 9.45 346.56 10.05L346.56 10.05L346.56 10.05Q347.61 10.05 348.49 9.86L348.49 9.86L348.49 9.86Q349.37 9.66 350.01 9.30L350.01 9.30L350.01 9.30Q350.66 8.95 351.02 8.46L351.02 8.46L351.02 8.46Q351.37 7.98 351.37 7.39L351.37 7.39L351.37 7.39Q351.37 6.69 350.87 6.32L350.87 6.32L350.87 6.32Q350.36 5.95 349.31 5.95L349.31 5.95L349.31 5.95Q349.08 5.95 348.84 5.97L348.84 5.97L348.84 5.97Q348.60 5.99 348.33 6.02L348.33 6.02ZM364.74 9.21L364.74 9.21L364.74 9.21Q365.20 9.21 365.46 9.46L365.46 9.46L365.46 9.46Q365.72 9.72 365.72 10.16L365.72 10.16L365.72 10.16Q365.72 10.28 365.70 10.39L365.70 10.39L365.70 10.39Q365.68 10.51 365.65 10.60L365.65 10.60L365.65 10.60Q365.47 10.57 365.25 10.55L365.25 10.55L365.25 10.55Q365.02 10.53 364.71 10.53L364.71 10.53L364.71 10.53Q364.11 10.53 363.50 10.63L363.50 10.63L363.50 10.63Q362.88 10.74 362.32 10.81L362.32 10.81L362.32 10.81Q362.00 11.55 361.73 12.24L361.73 12.24L361.73 12.24Q361.47 12.94 361.28 13.51L361.28 13.51L361.28 13.51Q361.09 14.08 360.98 14.50L360.98 14.50L360.98 14.50Q360.88 14.92 360.86 15.13L360.86 15.13L360.86 15.13Q362.00 14.90 363.15 14.73L363.15 14.73L363.15 14.73Q364.31 14.56 365.58 14.48L365.58 14.48L365.58 14.48Q365.74 14.71 365.84 14.99L365.84 14.99L365.84 14.99Q365.95 15.27 365.95 15.60L365.95 15.60L365.95 15.60Q365.95 15.68 365.95 15.78L365.95 15.78L365.95 15.78Q365.95 15.88 365.92 15.97L365.92 15.97L365.92 15.97Q365.53 15.96 365.09 15.95L365.09 15.95L365.09 15.95Q364.66 15.95 363.96 15.95L363.96 15.95L363.96 15.95Q363.50 15.95 363.08 15.97L363.08 15.97L363.08 15.97Q362.67 15.99 362.25 16.03L362.25 16.03L362.25 16.03Q361.83 16.07 361.36 16.14L361.36 16.14L361.36 16.14Q360.89 16.21 360.30 16.31L360.30 16.31L360.30 16.31Q359.66 16.06 359.06 15.08L359.06 15.08L359.06 15.08Q359.30 14.57 359.72 13.54L359.72 13.54L359.72 13.54Q360.15 12.52 360.81 10.79L360.81 10.79L360.81 10.79Q360.18 10.60 359.98 10.09L359.98 10.09L359.98 10.09Q360.05 10.02 360.39 9.92L360.39 9.92L360.39 9.92Q360.72 9.81 361.21 9.70L361.21 9.70L361.21 9.70Q361.42 9.16 361.57 8.75L361.57 8.75L361.57 8.75Q361.72 8.34 361.83 7.99L361.83 7.99L361.83 7.99Q361.94 7.63 362.03 7.29L362.03 7.29L362.03 7.29Q362.12 6.94 362.21 6.54L362.21 6.54L362.21 6.54Q361.72 6.51 361.44 6.27L361.44 6.27L361.44 6.27Q361.16 6.02 361.16 5.63L361.16 5.63L361.16 5.63Q361.16 5.52 361.19 5.36L361.19 5.36L361.19 5.36Q361.23 5.21 361.27 5.10L361.27 5.10L361.27 5.10Q361.55 5.14 361.81 5.15L361.81 5.15L361.81 5.15Q362.07 5.17 362.49 5.17L362.49 5.17L362.49 5.17Q363.37 5.17 364.14 5.12L364.14 5.12L364.14 5.12Q364.91 5.07 365.53 5.01L365.53 5.01L365.53 5.01Q366.16 4.96 366.60 4.91L366.60 4.91L366.60 4.91Q367.05 4.86 367.29 4.86L367.29 4.86L367.29 4.86Q367.61 4.86 367.86 5.19L367.86 5.19L367.86 5.19Q368.12 5.53 368.24 6.15L368.24 6.15L368.24 6.15Q367.81 6.10 367.53 6.09L367.53 6.09L367.53 6.09Q367.26 6.08 367.05 6.08L367.05 6.08L367.05 6.08Q366.28 6.08 365.64 6.15L365.64 6.15L365.64 6.15Q365.01 6.23 364.42 6.31L364.42 6.31L364.42 6.31Q364.34 6.44 364.23 6.64L364.23 6.64L364.23 6.64Q364.13 6.83 363.96 7.18L363.96 7.18L363.96 7.18Q363.79 7.53 363.55 8.06L363.55 8.06L363.55 8.06Q363.30 8.60 362.95 9.39L362.95 9.39L362.95 9.39Q363.48 9.31 363.95 9.26L363.95 9.26L363.95 9.26Q364.42 9.21 364.74 9.21ZM376.43 7.81L376.43 7.81L376.43 7.81Q376.35 7.74 376.28 7.58L376.28 7.58L376.28 7.58Q376.21 7.42 376.21 7.28L376.21 7.28L376.21 7.28Q376.56 6.69 376.71 6.10L376.71 6.10L376.71 6.10Q376.87 5.50 376.87 4.76L376.87 4.76L376.87 4.76Q376.87 4.20 376.78 3.53L376.78 3.53L376.78 3.53Q377.13 3.56 377.48 3.65L377.48 3.65L377.48 3.65Q377.82 3.74 378.09 3.87L378.09 3.87L378.09 3.87Q378.36 4.00 378.55 4.18L378.55 4.18L378.55 4.18Q378.73 4.35 378.77 4.52L378.77 4.52L378.77 4.52Q378.24 6.86 376.43 7.81ZM393.34 5.74L393.34 5.74L393.34 5.74Q393.39 5.98 393.41 6.07L393.41 6.07L393.41 6.07Q393.43 6.16 393.43 6.31L393.43 6.31L393.43 6.31Q393.43 6.78 393.23 7.18L393.23 7.18L393.23 7.18Q393.02 7.57 392.67 7.74L392.67 7.74L392.67 7.74Q392.39 7.36 391.99 7.09L391.99 7.09L391.99 7.09Q391.58 6.82 391.10 6.64L391.10 6.64L391.10 6.64Q390.61 6.47 390.10 6.38L390.10 6.38L390.10 6.38Q389.58 6.30 389.09 6.30L389.09 6.30L389.09 6.30Q388.60 6.30 388.17 6.38L388.17 6.38L388.17 6.38Q387.74 6.45 387.42 6.59L387.42 6.59L387.42 6.59Q387.09 6.72 386.90 6.92L386.90 6.92L386.90 6.92Q386.71 7.11 386.71 7.36L386.71 7.36L386.71 7.36Q386.75 7.67 387.09 7.99L387.09 7.99L387.09 7.99Q387.42 8.30 387.91 8.60L387.91 8.60L387.91 8.60Q388.40 8.90 389.00 9.20L389.00 9.20L389.00 9.20Q389.59 9.49 390.17 9.76L390.17 9.76L390.17 9.76Q390.88 10.09 391.40 10.38L391.40 10.38L391.40 10.38Q391.92 10.67 392.25 11.01L392.25 11.01L392.25 11.01Q392.59 11.35 392.76 11.79L392.76 11.79L392.76 11.79Q392.92 12.22 392.92 12.84L392.92 12.84L392.92 12.84Q392.92 13.55 392.69 14.18L392.69 14.18L392.69 14.18Q392.45 14.80 391.99 15.26L391.99 15.26L391.99 15.26Q391.54 15.72 390.89 15.98L390.89 15.98L390.89 15.98Q390.25 16.24 389.45 16.24L389.45 16.24L389.45 16.24Q388.67 16.24 387.76 16.00L387.76 16.00L387.76 16.00Q386.85 15.76 386.06 15.35L386.06 15.35L386.06 15.35Q385.27 14.94 384.74 14.40L384.74 14.40L384.74 14.40Q384.22 13.86 384.22 13.26L384.22 13.26L384.22 13.26Q384.22 12.98 384.38 12.54L384.38 12.54L384.38 12.54Q384.54 12.11 384.96 11.63L384.96 11.63L384.96 11.63Q385 12.05 385.41 12.63L385.41 12.63L385.41 12.63Q385.83 13.20 386.65 13.69L386.65 13.69L386.65 13.69Q387.42 14.14 388.24 14.34L388.24 14.34L388.24 14.34Q389.06 14.55 389.77 14.55L389.77 14.55L389.77 14.55Q390.56 14.55 391.05 14.35L391.05 14.35L391.05 14.35Q391.54 14.15 391.82 13.88L391.82 13.88L391.82 13.88Q392.10 13.61 392.21 13.33L392.21 13.33L392.21 13.33Q392.32 13.05 392.34 12.88L392.34 12.88L392.34 12.88Q392.32 12.60 392.08 12.34L392.08 12.34L392.08 12.34Q391.83 12.08 391.42 11.84L391.42 11.84L391.42 11.84Q391.01 11.59 390.46 11.34L390.46 11.34L390.46 11.34Q389.91 11.09 389.33 10.84L389.33 10.84L389.33 10.84Q388.44 10.44 387.81 10.10L387.81 10.10L387.81 10.10Q387.17 9.76 386.76 9.40L386.76 9.40L386.76 9.40Q386.34 9.04 386.16 8.65L386.16 8.65L386.16 8.65Q385.97 8.26 385.97 7.76L385.97 7.76L385.97 7.76Q385.97 6.97 386.44 6.27L386.44 6.27L386.44 6.27Q386.92 5.57 387.81 5.21L387.81 5.21L387.81 5.21Q388.26 5.01 388.77 4.93L388.77 4.93L388.77 4.93Q389.28 4.84 389.77 4.84L389.77 4.84L389.77 4.84Q390.70 4.84 391.58 5.10L391.58 5.10L391.58 5.10Q392.46 5.35 393.34 5.74ZM422.65 14.45L422.65 14.45L422.65 14.45Q422.86 13.99 423.15 13.26L423.15 13.26L423.15 13.26Q423.44 12.53 423.77 11.68L423.77 11.68L423.77 11.68Q424.09 10.84 424.42 9.95L424.42 9.95L424.42 9.95Q424.76 9.06 425.05 8.26L425.05 8.26L425.05 8.26Q425.35 7.46 425.56 6.83L425.56 6.83L425.56 6.83Q425.78 6.20 425.88 5.87L425.88 5.87L425.88 5.87Q425.00 6.23 424.37 6.97L424.37 6.97L424.37 6.97Q423.74 7.71 423.42 8.83L423.42 8.83L423.42 8.83Q423.09 8.72 422.83 8.43L422.83 8.43L422.83 8.43Q422.56 8.15 422.48 7.71L422.48 7.71L422.48 7.71Q422.62 7.07 423.00 6.54L423.00 6.54L423.00 6.54Q423.39 6.01 423.98 5.63L423.98 5.63L423.98 5.63Q424.56 5.25 425.33 5.05L425.33 5.05L425.33 5.05Q426.10 4.84 426.99 4.84L426.99 4.84L426.99 4.84Q428.11 4.84 429.04 5.17L429.04 5.17L429.04 5.17Q429.98 5.50 430.65 6.09L430.65 6.09L430.65 6.09Q431.33 6.68 431.70 7.50L431.70 7.50L431.70 7.50Q432.08 8.33 432.08 9.34L432.08 9.34L432.08 9.34Q432.08 10.71 431.58 11.96L431.58 11.96L431.58 11.96Q431.07 13.20 430.21 14.15L430.21 14.15L430.21 14.15Q429.35 15.11 428.22 15.67L428.22 15.67L428.22 15.67Q427.08 16.24 425.84 16.24L425.84 16.24L425.84 16.24Q424.69 16.24 423.87 15.79L423.87 15.79L423.87 15.79Q423.05 15.33 422.65 14.45ZM427.59 5.54L427.59 5.54L427.59 5.54Q426.89 5.54 426.26 5.74L426.26 5.74L426.26 5.74Q426.87 5.96 427.28 6.21L427.28 6.21L427.28 6.21Q427.69 6.45 427.84 6.59L427.84 6.59L427.84 6.59Q427.73 6.75 427.51 7.14L427.51 7.14L427.51 7.14Q427.29 7.53 427.01 8.09L427.01 8.09L427.01 8.09Q426.72 8.65 426.40 9.32L426.40 9.32L426.40 9.32Q426.08 9.98 425.77 10.68L425.77 10.68L425.77 10.68Q424.97 12.46 424.61 13.48L424.61 13.48L424.61 13.48Q424.26 14.50 424.26 14.90L424.26 14.90L424.26 14.90Q424.45 14.97 424.73 14.99L424.73 14.99L424.73 14.99Q425.01 15.02 425.33 15.02L425.33 15.02L425.33 15.02Q426.47 15.02 427.48 14.50L427.48 14.50L427.48 14.50Q428.50 13.97 429.26 13.09L429.26 13.09L429.26 13.09Q430.02 12.21 430.46 11.04L430.46 11.04L430.46 11.04Q430.91 9.87 430.91 8.58L430.91 8.58L430.91 8.58Q430.91 7.14 430.01 6.34L430.01 6.34L430.01 6.34Q429.11 5.54 427.59 5.54ZM449.12 7.46L449.12 7.46L449.12 7.46Q449.12 8.13 448.82 8.73L448.82 8.73L448.82 8.73Q448.52 9.32 447.99 9.79L447.99 9.79L447.99 9.79Q447.45 10.26 446.74 10.58L446.74 10.58L446.74 10.58Q446.03 10.91 445.19 11.02L445.19 11.02L445.19 11.02Q445.40 11.65 445.70 12.31L445.70 12.31L445.70 12.31Q446.00 12.98 446.35 13.59L446.35 13.59L446.35 13.59Q446.70 14.21 447.08 14.73L447.08 14.73L447.08 14.73Q447.45 15.25 447.82 15.58L447.82 15.58L447.82 15.58Q447.75 15.72 447.61 15.86L447.61 15.86L447.61 15.86Q447.48 16.00 447.31 16.12L447.31 16.12L447.31 16.12Q447.13 16.24 446.94 16.32L446.94 16.32L446.94 16.32Q446.75 16.39 446.59 16.39L446.59 16.39L446.59 16.39Q446.28 16.39 446.00 16.10L446.00 16.10L446.00 16.10Q445.72 15.81 445.43 15.17L445.43 15.17L445.43 15.17Q445.14 14.53 444.83 13.52L444.83 13.52L444.83 13.52Q444.51 12.50 444.14 11.07L444.14 11.07L444.14 11.07Q443.98 11.07 443.83 11.07L443.83 11.07L443.83 11.07Q443.67 11.07 443.59 11.05L443.59 11.05L443.59 11.05Q443.49 10.99 443.38 10.85L443.38 10.85L443.38 10.85Q443.00 11.66 442.71 12.38L442.71 12.38L442.71 12.38Q442.41 13.09 442.18 13.76L442.18 13.76L442.18 13.76Q441.95 14.42 441.78 15.04L441.78 15.04L441.78 15.04Q441.60 15.67 441.48 16.31L441.48 16.31L441.48 16.31Q441 16.20 440.65 15.90L440.65 15.90L440.65 15.90Q440.30 15.61 439.99 15.08L439.99 15.08L439.99 15.08Q440.05 14.95 440.11 14.83L440.11 14.83L440.11 14.83Q440.17 14.71 440.27 14.50L440.27 14.50L440.27 14.50Q440.37 14.28 440.52 13.94L440.52 13.94L440.52 13.94Q440.66 13.61 440.91 13.05L440.91 13.05L440.91 13.05Q441.15 12.49 441.50 11.68L441.50 11.68L441.50 11.68Q441.84 10.86 442.33 9.70L442.33 9.70L442.33 9.70Q442.55 9.18 442.71 8.79L442.71 8.79L442.71 8.79Q442.88 8.40 443.00 8.04L443.00 8.04L443.00 8.04Q443.13 7.69 443.23 7.33L443.23 7.33L443.23 7.33Q443.34 6.97 443.45 6.51L443.45 6.51L443.45 6.51Q442.81 6.73 442.25 7.01L442.25 7.01L442.25 7.01Q441.70 7.28 441.34 7.59L441.34 7.59L441.34 7.59Q441.21 7.50 441.08 7.34L441.08 7.34L441.08 7.34Q440.94 7.17 440.83 6.96L440.83 6.96L440.83 6.96Q440.72 6.76 440.64 6.55L440.64 6.55L440.64 6.55Q440.55 6.34 440.54 6.17L440.54 6.17L440.54 6.17Q440.96 5.89 441.57 5.66L441.57 5.66L441.57 5.66Q442.18 5.42 442.86 5.24L442.86 5.24L442.86 5.24Q443.55 5.07 444.26 4.97L444.26 4.97L444.26 4.97Q444.98 4.87 445.59 4.87L445.59 4.87L445.59 4.87Q447.27 4.87 448.20 5.56L448.20 5.56L448.20 5.56Q449.12 6.26 449.12 7.46ZM445.54 6.02L445.70 6.29L445.70 6.29Q445.61 6.41 445.40 6.79L445.40 6.79L445.40 6.79Q445.19 7.17 444.91 7.69L444.91 7.69L444.91 7.69Q444.64 8.22 444.34 8.83L444.34 8.83L444.34 8.83Q444.04 9.45 443.76 10.05L443.76 10.05L443.76 10.05Q444.81 10.05 445.69 9.86L445.69 9.86L445.69 9.86Q446.57 9.66 447.22 9.30L447.22 9.30L447.22 9.30Q447.86 8.95 448.22 8.46L448.22 8.46L448.22 8.46Q448.57 7.98 448.57 7.39L448.57 7.39L448.57 7.39Q448.57 6.69 448.07 6.32L448.07 6.32L448.07 6.32Q447.57 5.95 446.52 5.95L446.52 5.95L446.52 5.95Q446.28 5.95 446.04 5.97L446.04 5.97L446.04 5.97Q445.80 5.99 445.54 6.02L445.54 6.02ZM461.94 9.21L461.94 9.21L461.94 9.21Q462.41 9.21 462.66 9.46L462.66 9.46L462.66 9.46Q462.92 9.72 462.92 10.16L462.92 10.16L462.92 10.16Q462.92 10.28 462.90 10.39L462.90 10.39L462.90 10.39Q462.88 10.51 462.85 10.60L462.85 10.60L462.85 10.60Q462.67 10.57 462.45 10.55L462.45 10.55L462.45 10.55Q462.22 10.53 461.92 10.53L461.92 10.53L461.92 10.53Q461.31 10.53 460.70 10.63L460.70 10.63L460.70 10.63Q460.08 10.74 459.52 10.81L459.52 10.81L459.52 10.81Q459.20 11.55 458.93 12.24L458.93 12.24L458.93 12.24Q458.67 12.94 458.48 13.51L458.48 13.51L458.48 13.51Q458.29 14.08 458.18 14.50L458.18 14.50L458.18 14.50Q458.08 14.92 458.07 15.13L458.07 15.13L458.07 15.13Q459.20 14.90 460.35 14.73L460.35 14.73L460.35 14.73Q461.51 14.56 462.78 14.48L462.78 14.48L462.78 14.48Q462.94 14.71 463.04 14.99L463.04 14.99L463.04 14.99Q463.15 15.27 463.15 15.60L463.15 15.60L463.15 15.60Q463.15 15.68 463.15 15.78L463.15 15.78L463.15 15.78Q463.15 15.88 463.12 15.97L463.12 15.97L463.12 15.97Q462.73 15.96 462.29 15.95L462.29 15.95L462.29 15.95Q461.86 15.95 461.16 15.95L461.16 15.95L461.16 15.95Q460.70 15.95 460.28 15.97L460.28 15.97L460.28 15.97Q459.87 15.99 459.45 16.03L459.45 16.03L459.45 16.03Q459.03 16.07 458.56 16.14L458.56 16.14L458.56 16.14Q458.09 16.21 457.51 16.31L457.51 16.31L457.51 16.31Q456.86 16.06 456.26 15.08L456.26 15.08L456.26 15.08Q456.50 14.57 456.92 13.54L456.92 13.54L456.92 13.54Q457.35 12.52 458.01 10.79L458.01 10.79L458.01 10.79Q457.38 10.60 457.18 10.09L457.18 10.09L457.18 10.09Q457.25 10.02 457.59 9.92L457.59 9.92L457.59 9.92Q457.93 9.81 458.42 9.70L458.42 9.70L458.42 9.70Q458.63 9.16 458.77 8.75L458.77 8.75L458.77 8.75Q458.92 8.34 459.03 7.99L459.03 7.99L459.03 7.99Q459.14 7.63 459.23 7.29L459.23 7.29L459.23 7.29Q459.33 6.94 459.41 6.54L459.41 6.54L459.41 6.54Q458.92 6.51 458.64 6.27L458.64 6.27L458.64 6.27Q458.36 6.02 458.36 5.63L458.36 5.63L458.36 5.63Q458.36 5.52 458.39 5.36L458.39 5.36L458.39 5.36Q458.43 5.21 458.47 5.10L458.47 5.10L458.47 5.10Q458.75 5.14 459.01 5.15L459.01 5.15L459.01 5.15Q459.27 5.17 459.69 5.17L459.69 5.17L459.69 5.17Q460.57 5.17 461.34 5.12L461.34 5.12L461.34 5.12Q462.11 5.07 462.73 5.01L462.73 5.01L462.73 5.01Q463.36 4.96 463.81 4.91L463.81 4.91L463.81 4.91Q464.25 4.86 464.49 4.86L464.49 4.86L464.49 4.86Q464.81 4.86 465.07 5.19L465.07 5.19L465.07 5.19Q465.32 5.53 465.44 6.15L465.44 6.15L465.44 6.15Q465.01 6.10 464.74 6.09L464.74 6.09L464.74 6.09Q464.46 6.08 464.25 6.08L464.25 6.08L464.25 6.08Q463.48 6.08 462.85 6.15L462.85 6.15L462.85 6.15Q462.21 6.23 461.62 6.31L461.62 6.31L461.62 6.31Q461.54 6.44 461.43 6.64L461.43 6.64L461.43 6.64Q461.33 6.83 461.16 7.18L461.16 7.18L461.16 7.18Q460.99 7.53 460.75 8.06L460.75 8.06L460.75 8.06Q460.50 8.60 460.15 9.39L460.15 9.39L460.15 9.39Q460.68 9.31 461.15 9.26L461.15 9.26L461.15 9.26Q461.62 9.21 461.94 9.21ZM472.32 16.24L472.32 16.24L472.32 16.24Q471.65 16.04 471.39 15.85L471.39 15.85L471.39 15.85Q471.13 15.65 471.13 15.36L471.13 15.36L471.13 15.36Q471.13 15.13 471.25 14.73L471.25 14.73L471.25 14.73Q471.38 14.32 471.62 13.77L471.62 13.77L471.62 13.77Q471.87 13.22 472.21 12.54L472.21 12.54L472.21 12.54Q472.56 11.87 472.99 11.10L472.99 11.10L472.99 11.10Q472.63 11.09 472.34 11.08L472.34 11.08L472.34 11.08Q472.05 11.07 471.87 11.07L471.87 11.07L471.87 11.07Q471.95 10.86 472.35 10.71L472.35 10.71L472.35 10.71Q472.74 10.56 473.38 10.44L473.38 10.44L473.38 10.44Q473.93 9.53 474.55 8.71L474.55 8.71L474.55 8.71Q475.17 7.88 475.80 7.19L475.80 7.19L475.80 7.19Q476.43 6.50 477.06 5.97L477.06 5.97L477.06 5.97Q477.69 5.45 478.27 5.14L478.27 5.14L478.27 5.14Q478.28 5.04 478.29 4.97L478.29 4.97L478.29 4.97Q478.30 4.90 478.30 4.87L478.30 4.87L478.30 4.87Q478.49 4.87 478.82 4.97L478.82 4.97L478.82 4.97Q479.15 5.07 479.46 5.21L479.46 5.21L479.46 5.21Q479.78 5.35 480.02 5.49L480.02 5.49L480.02 5.49Q480.27 5.64 480.30 5.74L480.30 5.74L480.30 5.74Q479.84 6.55 479.39 8.17L479.39 8.17L479.39 8.17Q478.94 9.79 478.65 12.04L478.65 12.04L478.65 12.04Q478.58 12.60 478.53 13.31L478.53 13.31L478.53 13.31Q478.48 14.03 478.48 14.91L478.48 14.91L478.48 14.91Q478.48 15.22 478.48 15.54L478.48 15.54L478.48 15.54Q478.48 15.86 478.51 16.21L478.51 16.21L478.51 16.21Q478.48 16.23 478.45 16.23L478.45 16.23L478.45 16.23Q478.42 16.23 478.34 16.23L478.34 16.23L478.34 16.23Q478.14 16.23 477.88 16.16L477.88 16.16L477.88 16.16Q477.62 16.10 477.38 16.01L477.38 16.01L477.38 16.01Q477.13 15.92 476.96 15.81L476.96 15.81L476.96 15.81Q476.78 15.69 476.74 15.61L476.74 15.61L476.74 15.61Q476.73 15.43 476.73 15.25L476.73 15.25L476.73 15.25Q476.73 15.08 476.73 14.88L476.73 14.88L476.73 14.88Q476.73 14.01 476.79 13.12L476.79 13.12L476.79 13.12Q476.85 12.22 477.01 11.27L477.01 11.27L477.01 11.27Q476.81 11.26 476.49 11.23L476.49 11.23L476.49 11.23Q476.17 11.21 475.77 11.20L475.77 11.20L475.77 11.20Q475.37 11.19 474.91 11.16L474.91 11.16L474.91 11.16Q474.46 11.14 474.03 11.13L474.03 11.13L474.03 11.13Q473.69 11.76 473.40 12.38L473.40 12.38L473.40 12.38Q473.10 13.01 472.89 13.64L472.89 13.64L472.89 13.64Q472.65 14.31 472.51 14.98L472.51 14.98L472.51 14.98Q472.36 15.65 472.32 16.24ZM477.72 7.83L477.72 7.83L477.72 7.83Q477.78 7.63 477.85 7.29L477.85 7.29L477.85 7.29Q477.93 6.94 478.00 6.57L478.00 6.57L478.00 6.57Q477.65 6.69 477.22 7.03L477.22 7.03L477.22 7.03Q476.80 7.36 476.34 7.86L476.34 7.86L476.34 7.86Q475.89 8.36 475.42 8.98L475.42 8.98L475.42 8.98Q474.95 9.60 474.52 10.30L474.52 10.30L474.52 10.30Q475.69 10.21 477.19 10.18L477.19 10.18L477.19 10.18Q477.30 9.59 477.43 9.01L477.43 9.01L477.43 9.01Q477.57 8.43 477.72 7.83ZM493.46 16.21L493.46 16.21L493.46 16.21Q493.43 16.23 493.40 16.23L493.40 16.23L493.40 16.23Q493.37 16.23 493.29 16.23L493.29 16.23L493.29 16.23Q493.09 16.23 492.83 16.16L492.83 16.16L492.83 16.16Q492.58 16.10 492.33 16.01L492.33 16.01L492.33 16.01Q492.09 15.92 491.91 15.81L491.91 15.81L491.91 15.81Q491.74 15.69 491.69 15.61L491.69 15.61L491.69 15.61Q491.68 15.41 491.68 15.20L491.68 15.20L491.68 15.20Q491.68 14.99 491.68 14.80L491.68 14.80L491.68 14.80Q491.68 13.23 491.91 11.52L491.91 11.52L491.91 11.52Q492.14 9.81 492.67 7.83L492.67 7.83L492.67 7.83Q492.73 7.63 492.79 7.33L492.79 7.33L492.79 7.33Q492.86 7.03 492.93 6.68L492.93 6.68L492.93 6.68Q492.59 6.94 492.13 7.53L492.13 7.53L492.13 7.53Q491.67 8.11 491.15 8.90L491.15 8.90L491.15 8.90Q490.64 9.69 490.13 10.63L490.13 10.63L490.13 10.63Q489.62 11.58 489.20 12.55L489.20 12.55L489.20 12.55Q488.78 13.52 488.48 14.48L488.48 14.48L488.48 14.48Q488.18 15.43 488.11 16.24L488.11 16.24L488.11 16.24Q487.44 16.04 487.18 15.85L487.18 15.85L487.18 15.85Q486.92 15.65 486.92 15.37L486.92 15.37L486.92 15.37Q486.92 15.12 487.07 14.66L487.07 14.66L487.07 14.66Q487.23 14.20 487.51 13.57L487.51 13.57L487.51 13.57Q487.79 12.94 488.19 12.16L488.19 12.16L488.19 12.16Q488.60 11.38 489.09 10.49L489.09 10.49L489.09 10.49Q489.65 9.46 490.19 8.57L490.19 8.57L490.19 8.57Q490.73 7.67 491.25 6.94L491.25 6.94L491.25 6.94Q491.76 6.22 492.26 5.68L492.26 5.68L492.26 5.68Q492.76 5.15 493.25 4.87L493.25 4.87L493.25 4.87Q493.44 4.87 493.77 4.97L493.77 4.97L493.77 4.97Q494.10 5.07 494.42 5.21L494.42 5.21L494.42 5.21Q494.73 5.35 494.98 5.49L494.98 5.49L494.98 5.49Q495.22 5.64 495.25 5.74L495.25 5.74L495.25 5.74Q495.05 6.13 494.79 6.92L494.79 6.92L494.79 6.92Q494.52 7.70 494.25 8.69L494.25 8.69L494.25 8.69Q493.98 9.69 493.73 10.80L493.73 10.80L493.73 10.80Q493.49 11.91 493.35 12.94L493.35 12.94L493.35 12.94Q493.67 12.17 494.09 11.33L494.09 11.33L494.09 11.33Q494.52 10.50 495.00 9.68L495.00 9.68L495.00 9.68Q495.47 8.86 495.97 8.09L495.97 8.09L495.97 8.09Q496.47 7.32 496.94 6.69L496.94 6.69L496.94 6.69Q497.42 6.05 497.83 5.57L497.83 5.57L497.83 5.57Q498.25 5.10 498.57 4.87L498.57 4.87L498.57 4.87Q498.76 4.87 499.09 4.97L499.09 4.97L499.09 4.97Q499.42 5.07 499.74 5.21L499.74 5.21L499.74 5.21Q500.05 5.35 500.30 5.49L500.30 5.49L500.30 5.49Q500.54 5.64 500.57 5.74L500.57 5.74L500.57 5.74Q500.12 6.54 499.79 7.69L499.79 7.69L499.79 7.69Q499.45 8.83 499.22 10.09L499.22 10.09L499.22 10.09Q498.99 11.35 498.87 12.59L498.87 12.59L498.87 12.59Q498.75 13.83 498.75 14.81L498.75 14.81L498.75 14.81Q498.75 15.13 498.75 15.48L498.75 15.48L498.75 15.48Q498.75 15.83 498.78 16.21L498.78 16.21L498.78 16.21Q498.58 16.21 498.31 16.16L498.31 16.16L498.31 16.16Q498.04 16.11 497.78 16.03L497.78 16.03L497.78 16.03Q497.52 15.95 497.31 15.84L497.31 15.84L497.31 15.84Q497.10 15.74 497.01 15.61L497.01 15.61L497.01 15.61Q497.00 15.41 497.00 15.20L497.00 15.20L497.00 15.20Q497.00 14.99 497.00 14.80L497.00 14.80L497.00 14.80Q497.00 13.23 497.23 11.52L497.23 11.52L497.23 11.52Q497.46 9.81 497.99 7.83L497.99 7.83L497.99 7.83Q498.05 7.63 498.12 7.29L498.12 7.29L498.12 7.29Q498.19 6.96 498.26 6.59L498.26 6.59L498.26 6.59Q497.87 6.79 497.37 7.34L497.37 7.34L497.37 7.34Q496.87 7.90 496.36 8.69L496.36 8.69L496.36 8.69Q495.85 9.48 495.35 10.44L495.35 10.44L495.35 10.44Q494.86 11.41 494.46 12.41L494.46 12.41L494.46 12.41Q494.06 13.41 493.79 14.40L493.79 14.40L493.79 14.40Q493.51 15.39 493.46 16.21ZM513.07 14.38L513.07 14.38L513.07 14.38Q513.42 14.98 513.42 15.54L513.42 15.54L513.42 15.54Q513.42 15.67 513.40 15.77L513.40 15.77L513.40 15.77Q513.38 15.88 513.35 15.99L513.35 15.99L513.35 15.99Q513.11 15.96 512.85 15.95L512.85 15.95L512.85 15.95Q512.60 15.93 512.32 15.93L512.32 15.93L512.32 15.93Q511.98 15.93 511.64 15.95L511.64 15.95L511.64 15.95Q511.29 15.97 510.87 16.02L510.87 16.02L510.87 16.02Q510.45 16.06 509.94 16.13L509.94 16.13L509.94 16.13Q509.42 16.20 508.73 16.31L508.73 16.31L508.73 16.31Q508.41 16.20 508.09 15.87L508.09 15.87L508.09 15.87Q507.77 15.54 507.49 15.08L507.49 15.08L507.49 15.08Q507.63 14.77 507.84 14.31L507.84 14.31L507.84 14.31Q508.05 13.86 508.33 13.21L508.33 13.21L508.33 13.21Q508.61 12.56 508.95 11.68L508.95 11.68L508.95 11.68Q509.29 10.81 509.68 9.66L509.68 9.66L509.68 9.66Q509.94 8.90 510.12 8.33L510.12 8.33L510.12 8.33Q510.30 7.76 510.45 7.22L510.45 7.22L510.45 7.22Q510.59 6.68 510.73 6.09L510.73 6.09L510.73 6.09Q510.87 5.50 511.04 4.73L511.04 4.73L511.04 4.73Q511.60 4.84 512.01 5.14L512.01 5.14L512.01 5.14Q512.43 5.45 512.81 6.01L512.81 6.01L512.81 6.01Q512.69 6.19 512.51 6.59L512.51 6.59L512.51 6.59Q512.33 7 512.08 7.58L512.08 7.58L512.08 7.58Q511.84 8.16 511.55 8.90L511.55 8.90L511.55 8.90Q511.25 9.63 510.93 10.47L510.93 10.47L510.93 10.47Q510.62 11.30 510.33 12.03L510.33 12.03L510.33 12.03Q510.03 12.75 509.80 13.34L509.80 13.34L509.80 13.34Q509.57 13.93 509.43 14.35L509.43 14.35L509.43 14.35Q509.29 14.77 509.29 14.98L509.29 14.98L509.29 14.98Q509.52 14.97 509.70 14.95L509.70 14.95L509.70 14.95Q509.88 14.94 510.08 14.90L510.08 14.90L510.08 14.90Q510.27 14.87 510.50 14.82L510.50 14.82L510.50 14.82Q510.73 14.77 511.06 14.69L511.06 14.69L511.06 14.69Q511.34 14.62 511.57 14.57L511.57 14.57L511.57 14.57Q511.81 14.52 512.04 14.48L512.04 14.48L512.04 14.48Q512.27 14.45 512.52 14.43L512.52 14.43L512.52 14.43Q512.76 14.41 513.07 14.38ZM522.49 16.24L522.49 16.24L522.49 16.24Q521.82 16.04 521.56 15.85L521.56 15.85L521.56 15.85Q521.30 15.65 521.30 15.36L521.30 15.36L521.30 15.36Q521.30 15.13 521.43 14.73L521.43 14.73L521.43 14.73Q521.56 14.32 521.80 13.77L521.80 13.77L521.80 13.77Q522.05 13.22 522.39 12.54L522.39 12.54L522.39 12.54Q522.73 11.87 523.17 11.10L523.17 11.10L523.17 11.10Q522.80 11.09 522.51 11.08L522.51 11.08L522.51 11.08Q522.23 11.07 522.05 11.07L522.05 11.07L522.05 11.07Q522.13 10.86 522.52 10.71L522.52 10.71L522.52 10.71Q522.91 10.56 523.56 10.44L523.56 10.44L523.56 10.44Q524.10 9.53 524.73 8.71L524.73 8.71L524.73 8.71Q525.35 7.88 525.98 7.19L525.98 7.19L525.98 7.19Q526.61 6.50 527.24 5.97L527.24 5.97L527.24 5.97Q527.87 5.45 528.44 5.14L528.44 5.14L528.44 5.14Q528.46 5.04 528.46 4.97L528.46 4.97L528.46 4.97Q528.47 4.90 528.47 4.87L528.47 4.87L528.47 4.87Q528.67 4.87 529.00 4.97L529.00 4.97L529.00 4.97Q529.33 5.07 529.64 5.21L529.64 5.21L529.64 5.21Q529.96 5.35 530.20 5.49L530.20 5.49L530.20 5.49Q530.45 5.64 530.47 5.74L530.47 5.74L530.47 5.74Q530.01 6.55 529.56 8.17L529.56 8.17L529.56 8.17Q529.12 9.79 528.82 12.04L528.82 12.04L528.82 12.04Q528.75 12.60 528.70 13.31L528.70 13.31L528.70 13.31Q528.65 14.03 528.65 14.91L528.65 14.91L528.65 14.91Q528.65 15.22 528.65 15.54L528.65 15.54L528.65 15.54Q528.65 15.86 528.68 16.21L528.68 16.21L528.68 16.21Q528.65 16.23 528.63 16.23L528.63 16.23L528.63 16.23Q528.60 16.23 528.51 16.23L528.51 16.23L528.51 16.23Q528.32 16.23 528.06 16.16L528.06 16.16L528.06 16.16Q527.80 16.10 527.55 16.01L527.55 16.01L527.55 16.01Q527.31 15.92 527.13 15.81L527.13 15.81L527.13 15.81Q526.96 15.69 526.92 15.61L526.92 15.61L526.92 15.61Q526.90 15.43 526.90 15.25L526.90 15.25L526.90 15.25Q526.90 15.08 526.90 14.88L526.90 14.88L526.90 14.88Q526.90 14.01 526.97 13.12L526.97 13.12L526.97 13.12Q527.03 12.22 527.18 11.27L527.18 11.27L527.18 11.27Q526.99 11.26 526.67 11.23L526.67 11.23L526.67 11.23Q526.34 11.21 525.94 11.20L525.94 11.20L525.94 11.20Q525.55 11.19 525.09 11.16L525.09 11.16L525.09 11.16Q524.64 11.14 524.20 11.13L524.20 11.13L524.20 11.13Q523.87 11.76 523.57 12.38L523.57 12.38L523.57 12.38Q523.28 13.01 523.07 13.64L523.07 13.64L523.07 13.64Q522.83 14.31 522.68 14.98L522.68 14.98L522.68 14.98Q522.54 15.65 522.49 16.24ZM527.90 7.83L527.90 7.83L527.90 7.83Q527.95 7.63 528.03 7.29L528.03 7.29L528.03 7.29Q528.11 6.94 528.18 6.57L528.18 6.57L528.18 6.57Q527.83 6.69 527.40 7.03L527.40 7.03L527.40 7.03Q526.97 7.36 526.52 7.86L526.52 7.86L526.52 7.86Q526.06 8.36 525.59 8.98L525.59 8.98L525.59 8.98Q525.13 9.60 524.69 10.30L524.69 10.30L524.69 10.30Q525.87 10.21 527.37 10.18L527.37 10.18L527.37 10.18Q527.48 9.59 527.61 9.01L527.61 9.01L527.61 9.01Q527.74 8.43 527.90 7.83ZM539.10 16.24L539.10 16.24L539.10 16.24Q538.30 16.00 538.02 15.79L538.02 15.79L538.02 15.79Q537.74 15.57 537.74 15.19L537.74 15.19L537.74 15.19Q537.74 14.77 537.94 14.01L537.94 14.01L537.94 14.01Q538.13 13.24 538.45 12.31L538.45 12.31L538.45 12.31Q538.76 11.37 539.17 10.35L539.17 10.35L539.17 10.35Q539.57 9.32 539.99 8.39L539.99 8.39L539.99 8.39Q540.41 7.45 540.81 6.67L540.81 6.67L540.81 6.67Q541.21 5.89 541.52 5.46L541.52 5.46L541.42 4.87L541.42 4.87Q541.62 4.87 541.97 4.97L541.97 4.97L541.97 4.97Q542.32 5.07 542.67 5.21L542.67 5.21L542.67 5.21Q543.03 5.35 543.30 5.49L543.30 5.49L543.30 5.49Q543.58 5.64 543.61 5.74L543.61 5.74L543.61 5.74Q543.54 6.08 543.49 6.76L543.49 6.76L543.49 6.76Q543.45 7.43 543.45 8.20L543.45 8.20L543.45 8.20Q543.45 9.73 543.57 11.19L543.57 11.19L543.57 11.19Q543.69 12.66 544.12 14.17L544.12 14.17L544.12 14.17Q544.35 13.05 544.61 11.94L544.61 11.94L544.61 11.94Q544.87 10.82 545.15 9.81L545.15 9.81L545.15 9.81Q545.43 8.79 545.71 7.92L545.71 7.92L545.71 7.92Q545.99 7.06 546.24 6.40L546.24 6.40L546.24 6.40Q546.50 5.75 546.73 5.38L546.73 5.38L546.73 5.38Q546.95 5.01 547.13 4.98L547.13 4.98L547.13 4.98Q547.29 5.01 547.47 5.10L547.47 5.10L547.47 5.10Q547.65 5.19 547.82 5.32L547.82 5.32L547.82 5.32Q547.99 5.45 548.13 5.60L548.13 5.60L548.13 5.60Q548.27 5.75 548.35 5.91L548.35 5.91L548.35 5.91Q547.90 6.09 547.46 6.76L547.46 6.76L547.46 6.76Q547.02 7.43 546.62 8.39L546.62 8.39L546.62 8.39Q546.22 9.35 545.88 10.47L545.88 10.47L545.88 10.47Q545.54 11.59 545.28 12.68L545.28 12.68L545.28 12.68Q545.02 13.76 544.87 14.69L544.87 14.69L544.87 14.69Q544.73 15.61 544.71 16.17L544.71 16.17L544.71 16.17Q544.71 16.20 544.73 16.21L544.73 16.21L544.73 16.21Q544.68 16.23 544.63 16.23L544.63 16.23L544.63 16.23Q544.59 16.23 544.54 16.23L544.54 16.23L544.54 16.23Q543.90 16.23 543.40 16.07L543.40 16.07L543.40 16.07Q542.91 15.90 542.75 15.61L542.75 15.61L542.75 15.61Q542.46 14.43 542.26 13.34L542.26 13.34L542.26 13.34Q542.07 12.25 541.93 11.16L541.93 11.16L541.93 11.16Q541.80 10.07 541.72 8.95L541.72 8.95L541.72 8.95Q541.65 7.84 541.60 6.62L541.60 6.62L541.60 6.62Q541.34 7.04 541.04 7.72L541.04 7.72L541.04 7.72Q540.75 8.40 540.47 9.21L540.47 9.21L540.47 9.21Q540.19 10.02 539.93 10.92L539.93 10.92L539.93 10.92Q539.67 11.82 539.48 12.67L539.48 12.67L539.48 12.67Q539.28 13.52 539.17 14.29L539.17 14.29L539.17 14.29Q539.06 15.05 539.06 15.61L539.06 15.61L539.06 15.61Q539.06 15.90 539.06 16.03L539.06 16.03L539.06 16.03Q539.07 16.16 539.10 16.24ZM555.35 14.45L555.35 14.45L555.35 14.45Q555.56 13.99 555.86 13.26L555.86 13.26L555.86 13.26Q556.15 12.53 556.47 11.68L556.47 11.68L556.47 11.68Q556.79 10.84 557.13 9.95L557.13 9.95L557.13 9.95Q557.47 9.06 557.76 8.26L557.76 8.26L557.76 8.26Q558.05 7.46 558.27 6.83L558.27 6.83L558.27 6.83Q558.49 6.20 558.59 5.87L558.59 5.87L558.59 5.87Q557.70 6.23 557.07 6.97L557.07 6.97L557.07 6.97Q556.44 7.71 556.12 8.83L556.12 8.83L556.12 8.83Q555.80 8.72 555.53 8.43L555.53 8.43L555.53 8.43Q555.27 8.15 555.18 7.71L555.18 7.71L555.18 7.71Q555.32 7.07 555.71 6.54L555.71 6.54L555.71 6.54Q556.09 6.01 556.68 5.63L556.68 5.63L556.68 5.63Q557.27 5.25 558.04 5.05L558.04 5.05L558.04 5.05Q558.81 4.84 559.69 4.84L559.69 4.84L559.69 4.84Q560.81 4.84 561.75 5.17L561.75 5.17L561.75 5.17Q562.69 5.50 563.36 6.09L563.36 6.09L563.36 6.09Q564.03 6.68 564.41 7.50L564.41 7.50L564.41 7.50Q564.79 8.33 564.79 9.34L564.79 9.34L564.79 9.34Q564.79 10.71 564.28 11.96L564.28 11.96L564.28 11.96Q563.78 13.20 562.92 14.15L562.92 14.15L562.92 14.15Q562.06 15.11 560.92 15.67L560.92 15.67L560.92 15.67Q559.79 16.24 558.54 16.24L558.54 16.24L558.54 16.24Q557.40 16.24 556.58 15.79L556.58 15.79L556.58 15.79Q555.76 15.33 555.35 14.45ZM560.29 5.54L560.29 5.54L560.29 5.54Q559.59 5.54 558.96 5.74L558.96 5.74L558.96 5.74Q559.58 5.96 559.99 6.21L559.99 6.21L559.99 6.21Q560.39 6.45 560.55 6.59L560.55 6.59L560.55 6.59Q560.43 6.75 560.22 7.14L560.22 7.14L560.22 7.14Q560.00 7.53 559.71 8.09L559.71 8.09L559.71 8.09Q559.43 8.65 559.10 9.32L559.10 9.32L559.10 9.32Q558.78 9.98 558.47 10.68L558.47 10.68L558.47 10.68Q557.68 12.46 557.32 13.48L557.32 13.48L557.32 13.48Q556.96 14.50 556.96 14.90L556.96 14.90L556.96 14.90Q557.16 14.97 557.44 14.99L557.44 14.99L557.44 14.99Q557.72 15.02 558.04 15.02L558.04 15.02L558.04 15.02Q559.17 15.02 560.19 14.50L560.19 14.50L560.19 14.50Q561.20 13.97 561.97 13.09L561.97 13.09L561.97 13.09Q562.73 12.21 563.17 11.04L563.17 11.04L563.17 11.04Q563.61 9.87 563.61 8.58L563.61 8.58L563.61 8.58Q563.61 7.14 562.72 6.34L562.72 6.34L562.72 6.34Q561.82 5.54 560.29 5.54Z"></path></g></svg>