<svg data-v-423bf9ae="" xmlns="http://www.w3.org/2000/svg" viewBox="0 0 553.8460948456268 60" class="font"><!----><!----><!----><g data-v-423bf9ae="" id="f3ed2dbe-e054-453a-8ebe-f81035c74ee4" fill="black" transform="matrix(4.569687366264075,0,0,4.569687366264075,-5.757805679735611,-23.533889895222174)"><path d="M8.46 16.24L8.69 16.41L8.69 16.41Q8.29 17.25 7.71 17.72L7.71 17.72L7.71 17.72Q7.14 18.20 6.54 18.20L6.54 18.20L6.54 18.20Q6.03 18.20 5.71 18.01L5.71 18.01L5.71 18.01Q5.39 17.82 5.14 17.46L5.14 17.46L5.14 17.46Q4.89 17.11 4.40 16.27L4.40 16.27L3.14 14.14L2.56 14.83L2.56 17.81L1.26 18.28L1.26 8.37L2.56 7.87L2.56 13.80L7.36 8.12L8.22 8.19L3.99 13.13L5.98 16.46L5.98 16.46Q6.26 16.97 6.48 17.14L6.48 17.14L6.48 17.14Q6.71 17.32 7.06 17.30L7.06 17.30L7.06 17.30Q7.41 17.30 7.79 17.00L7.79 17.00L7.79 17.00Q8.18 16.70 8.46 16.24L8.46 16.24ZM13.12 11.09L13.12 11.09Q13.80 11.09 14.41 11.38L14.41 11.38L14.41 11.38Q15.02 11.68 15.30 12.28L15.30 12.28L14.29 12.82L14.29 12.82Q14.07 12.50 13.68 12.24L13.68 12.24L13.68 12.24Q13.29 11.98 12.84 11.98L12.84 11.98L12.84 11.98Q12.12 11.98 11.59 12.36L11.59 12.36L11.59 12.36Q11.06 12.73 10.78 13.36L10.78 13.36L10.78 13.36Q10.50 13.99 10.50 14.76L10.50 14.76L10.50 14.76Q10.50 15.86 10.88 16.55L10.88 16.55L10.88 16.55Q11.26 17.25 12.07 17.25L12.07 17.25L12.07 17.25Q13.22 17.25 13.65 16.32L13.65 16.32L13.65 16.32Q14.08 15.40 14.08 14.31L14.08 14.31L14.08 13.68L15.32 13.16L15.32 16.84L15.32 16.84Q15.32 17.02 15.41 17.19L15.41 17.19L15.41 17.19Q15.51 17.36 15.71 17.36L15.71 17.36L15.71 17.36Q16.11 17.36 16.45 16.80L16.45 16.80L16.66 17.02L16.66 17.02Q16.49 17.50 16.07 17.83L16.07 17.83L16.07 17.83Q15.65 18.16 15.23 18.16L15.23 18.16L15.23 18.16Q14.63 18.16 14.34 17.71L14.34 17.71L14.34 17.71Q14.06 17.26 14.06 16.52L14.06 16.52L14.03 16.52L14.03 16.52Q13.68 17.26 13.08 17.76L13.08 17.76L13.08 17.76Q12.49 18.26 11.83 18.26L11.83 18.26L11.83 18.26Q10.64 18.26 10.03 17.44L10.03 17.44L10.03 17.44Q9.42 16.62 9.42 15.25L9.42 15.25L9.42 15.25Q9.42 14.15 9.91 13.20L9.91 13.20L9.91 13.20Q10.40 12.24 11.25 11.66L11.25 11.66L11.25 11.66Q12.10 11.09 13.12 11.09L13.12 11.09ZM25.07 10.96L25.07 10.96Q25.49 10.96 25.73 11.24L25.73 11.24L25.73 11.24Q25.96 11.51 25.96 12.15L25.96 12.15L25.96 16.91L25.96 16.91Q25.96 17.12 26.05 17.26L26.05 17.26L26.05 17.26Q26.15 17.39 26.32 17.39L26.32 17.39L26.32 17.39Q26.49 17.39 26.68 17.25L26.68 17.25L26.68 17.25Q26.88 17.11 27.06 16.84L27.06 16.84L27.29 17.05L27.29 17.05Q26.99 17.68 26.59 17.93L26.59 17.93L26.59 17.93Q26.18 18.17 26.43 18.17L26.43 18.17L26.43 18.17Q26.68 18.16 25.83 18.16L25.83 18.16L25.83 18.16Q24.67 18.16 24.67 16.74L24.67 16.74L24.67 12.88L24.67 12.88Q24.67 12.74 24.60 12.64L24.60 12.64L24.60 12.64Q24.53 12.54 24.42 12.54L24.42 12.54L24.42 12.54Q24.11 12.54 23.74 13.22L23.74 13.22L23.74 13.22Q23.38 13.89 23.13 15.11L23.13 15.11L23.13 15.11Q22.88 16.34 22.88 17.92L22.88 17.92L21.60 18.28L21.60 12.88L21.60 12.88Q21.60 12.74 21.53 12.64L21.53 12.64L21.53 12.64Q21.46 12.54 21.36 12.54L21.36 12.54L21.36 12.54Q21.08 12.54 20.71 13.22L20.71 13.22L20.71 13.22Q20.34 13.90 20.07 15.13L20.07 15.13L20.07 15.13Q19.80 16.35 19.80 17.92L19.80 17.92L18.59 18.28L18.59 12.29L18.59 12.29Q18.59 12.05 18.47 11.91L18.47 11.91L18.47 11.91Q18.35 11.77 18.17 11.77L18.17 11.77L18.17 11.77Q17.82 11.77 17.46 12.38L17.46 12.38L17.23 12.15L17.23 12.15Q17.53 11.52 17.93 11.25L17.93 11.25L17.93 11.25Q18.34 10.98 18.43 10.97L18.43 10.97L18.43 10.97Q18.52 10.96 18.70 10.96L18.70 10.96L18.70 10.96Q19.38 10.96 19.61 11.25L19.61 11.25L19.61 11.25Q19.85 11.54 19.85 12.01L19.85 12.01L19.85 14.35L19.89 14.35L19.89 14.35Q20.24 12.82 20.84 11.89L20.84 11.89L20.84 11.89Q21.43 10.96 22.02 10.96L22.02 10.96L22.02 10.96Q22.46 10.96 22.67 11.23L22.67 11.23L22.67 11.23Q22.89 11.49 22.89 12.15L22.89 12.15L22.89 14.35L22.97 14.35L22.97 14.35Q23.32 12.82 23.91 11.89L23.91 11.89L23.91 11.89Q24.49 10.96 25.07 10.96L25.07 10.96ZM32.07 11.09L32.07 11.09Q32.76 11.09 33.37 11.38L33.37 11.38L33.37 11.38Q33.98 11.68 34.26 12.28L34.26 12.28L33.25 12.82L33.25 12.82Q33.03 12.50 32.63 12.24L32.63 12.24L32.63 12.24Q32.24 11.98 31.79 11.98L31.79 11.98L31.79 11.98Q31.08 11.98 30.55 12.36L30.55 12.36L30.55 12.36Q30.02 12.73 29.74 13.36L29.74 13.36L29.74 13.36Q29.46 13.99 29.46 14.76L29.46 14.76L29.46 14.76Q29.46 15.86 29.83 16.55L29.83 16.55L29.83 16.55Q30.21 17.25 31.02 17.25L31.02 17.25L31.02 17.25Q32.17 17.25 32.61 16.32L32.61 16.32L32.61 16.32Q33.04 15.40 33.04 14.31L33.04 14.31L33.04 13.68L34.27 13.16L34.27 16.84L34.27 16.84Q34.27 17.02 34.37 17.19L34.37 17.19L34.37 17.19Q34.47 17.36 34.66 17.36L34.66 17.36L34.66 17.36Q35.07 17.36 35.41 16.80L35.41 16.80L35.62 17.02L35.62 17.02Q35.45 17.50 35.03 17.83L35.03 17.83L35.03 17.83Q34.61 18.16 34.19 18.16L34.19 18.16L34.19 18.16Q33.59 18.16 33.30 17.71L33.30 17.71L33.30 17.71Q33.01 17.26 33.01 16.52L33.01 16.52L32.98 16.52L32.98 16.52Q32.63 17.26 32.04 17.76L32.04 17.76L32.04 17.76Q31.44 18.26 30.79 18.26L30.79 18.26L30.79 18.26Q29.60 18.26 28.99 17.44L28.99 17.44L28.99 17.44Q28.38 16.62 28.38 15.25L28.38 15.25L28.38 15.25Q28.38 14.15 28.87 13.20L28.87 13.20L28.87 13.20Q29.36 12.24 30.20 11.66L30.20 11.66L30.20 11.66Q31.05 11.09 32.07 11.09L32.07 11.09ZM38.44 7.36L38.44 11.09L40.39 11.09L39.97 11.98L38.44 11.98L38.44 16.91L38.44 16.91Q38.44 17.12 38.57 17.26L38.57 17.26L38.57 17.26Q38.70 17.39 38.91 17.39L38.91 17.39L38.91 17.39Q39.20 17.39 39.72 16.84L39.72 16.84L39.91 17.05L39.91 17.05Q39.65 17.58 39.28 17.84L39.28 17.84L39.28 17.84Q38.91 18.10 38.58 18.17L38.58 18.17L38.58 18.17Q38.25 18.23 38.25 18.17L38.25 18.17L38.25 18.17Q38.26 18.17 38.29 18.17L38.29 18.17L38.29 18.17Q38.32 18.16 38.37 18.16L38.37 18.16L38.37 18.16Q37.14 18.16 37.14 16.74L37.14 16.74L37.14 11.98L36.09 11.98L36.53 11.09L37.14 11.09L37.14 7.87L38.44 7.36ZM41.45 8.72L41.93 11.80L42.53 11.55L42.97 8.12L41.45 8.72ZM46.33 10.51L46.33 10.51Q46.80 10.51 47.02 10.68L47.02 10.68L47.02 10.68Q47.24 10.85 47.24 11.20L47.24 11.20L47.24 11.20Q47.24 11.58 47.09 11.87L47.09 11.87L47.09 11.87Q46.94 12.17 46.77 12.38L46.77 12.38L46.77 12.38Q46.61 12.59 46.55 12.67L46.55 12.67L46.55 12.67Q46.72 12.95 47.18 13.33L47.18 13.33L47.18 13.33Q47.56 13.65 47.78 13.90L47.78 13.90L47.78 13.90Q48.01 14.15 48.17 14.58L48.17 14.58L48.17 14.58Q48.33 15.01 48.33 15.62L48.33 15.62L48.33 15.62Q48.33 16.35 48.00 16.95L48.00 16.95L48.00 16.95Q47.67 17.56 47.09 17.91L47.09 17.91L47.09 17.91Q46.51 18.26 45.78 18.26L45.78 18.26L45.78 18.26Q45.33 18.26 44.80 18.07L44.80 18.07L44.80 18.07Q44.27 17.88 44.02 17.53L44.02 17.53L44.95 16.28L44.95 16.28Q45.29 16.72 45.66 17.02L45.66 17.02L45.66 17.02Q46.03 17.33 46.47 17.33L46.47 17.33L46.47 17.33Q47.07 17.33 47.50 16.93L47.50 16.93L47.50 16.93Q47.92 16.53 47.92 15.97L47.92 15.97L47.92 15.97Q47.92 15.53 47.55 15.09L47.55 15.09L47.55 15.09Q47.18 14.64 46.51 14.04L46.51 14.04L46.51 14.04Q46.42 13.97 46.19 13.76L46.19 13.76L46.19 13.76Q45.95 13.54 45.84 13.40L45.84 13.40L44.86 14.84L44.41 14.55L45.53 12.99L45.53 12.99Q45.33 12.45 45.33 11.91L45.33 11.91L45.33 11.91Q45.33 11.31 45.60 10.91L45.60 10.91L45.60 10.91Q45.86 10.51 46.33 10.51L46.33 10.51ZM46.33 11.06L46.33 11.06Q46.14 11.06 46.10 11.16L46.10 11.16L46.10 11.16Q46.05 11.26 46.05 11.45L46.05 11.45L46.05 11.45Q46.05 11.70 46.12 11.89L46.12 11.89L46.12 11.89Q46.19 12.07 46.21 12.14L46.21 12.14L46.21 12.14Q46.37 12.04 46.50 11.78L46.50 11.78L46.50 11.78Q46.63 11.52 46.63 11.34L46.63 11.34L46.63 11.34Q46.63 11.21 46.56 11.14L46.56 11.14L46.56 11.14Q46.48 11.06 46.33 11.06L46.33 11.06ZM57.43 8.11L57.43 8.11Q59.11 8.11 59.99 9.05L59.99 9.05L59.99 9.05Q60.87 10.00 60.87 11.61L60.87 11.61L60.87 11.61Q60.87 13.38 59.76 14.88L59.76 14.88L59.76 14.88Q58.65 16.37 56.89 17.26L56.89 17.26L56.89 17.26Q55.13 18.16 53.30 18.27L53.30 18.27L53.30 10.51L54.60 10.04L54.60 17.51L54.60 17.51Q55.99 17.15 57.06 16.33L57.06 16.33L57.06 16.33Q58.14 15.51 58.75 14.35L58.75 14.35L58.75 14.35Q59.36 13.19 59.36 11.84L59.36 11.84L59.36 11.84Q59.36 11.07 59.09 10.42L59.09 10.42L59.09 10.42Q58.83 9.76 58.26 9.34L58.26 9.34L58.26 9.34Q57.69 8.92 56.83 8.92L56.83 8.92L56.83 8.92Q55.72 8.92 54.63 9.35L54.63 9.35L54.63 9.35Q53.55 9.79 52.68 10.51L52.68 10.51L52.40 10.22L52.40 10.22Q53.30 9.34 54.75 8.72L54.75 8.72L54.75 8.72Q56.21 8.11 57.43 8.11L57.43 8.11ZM65.16 12.80L65.16 12.80Q64.53 13.45 64.07 14.51L64.07 14.51L64.07 14.51Q63.62 15.57 63.62 16.44L63.62 16.44L63.62 16.44Q63.62 17.19 63.95 17.70L63.95 17.70L63.95 17.70Q64.27 18.21 65.00 18.21L65.00 18.21L65.00 18.21Q65.59 18.21 66.13 17.91L66.13 17.91L66.13 17.91Q66.67 17.60 67.05 17.11L67.05 17.11L66.89 16.90L66.89 16.90Q66.46 17.19 66.04 17.19L66.04 17.19L66.04 17.19Q65.38 17.19 65.04 16.73L65.04 16.73L65.04 16.73Q64.71 16.27 64.71 15.61L64.71 15.61L64.71 15.61Q64.71 14.55 65.25 13.59L65.25 13.59L65.25 13.59Q65.80 12.64 66.64 11.75L66.64 11.75L66.42 11.55L66.42 11.55Q65.44 12.17 64.62 12.17L64.62 12.17L64.62 12.17Q64.15 12.17 63.76 11.74L63.76 11.74L63.76 11.74Q63.36 11.31 63.15 10.79L63.15 10.79L62.02 12.07L62.02 12.07Q62.12 12.35 62.55 12.71L62.55 12.71L61.61 14.67L62.13 14.91L63.04 12.91L63.04 12.91Q63.28 13.01 63.43 13.03L63.43 13.03L63.43 13.03Q63.59 13.06 63.85 13.06L63.85 13.06L63.85 13.06Q64.54 13.06 65.11 12.75L65.11 12.75L65.16 12.80ZM72.07 10.96L72.07 10.96Q72.83 10.96 73.33 11.37L73.33 11.37L73.33 11.37Q73.84 11.77 73.84 12.57L73.84 12.57L73.84 12.57Q73.84 13.22 73.14 14.01L73.14 14.01L73.14 14.01Q72.45 14.80 71.52 15.46L71.52 15.46L71.52 15.46Q70.59 16.11 69.93 16.38L69.93 16.38L69.93 16.38Q70.28 16.94 70.73 17.16L70.73 17.16L70.73 17.16Q71.18 17.37 71.78 17.37L71.78 17.37L71.78 17.37Q72.45 17.37 73.11 17.03L73.11 17.03L73.11 17.03Q73.78 16.69 74.21 16.14L74.21 16.14L74.38 16.44L74.38 16.44Q73.70 17.32 72.93 17.79L72.93 17.79L72.93 17.79Q72.16 18.26 71.04 18.26L71.04 18.26L71.04 18.26Q70.18 18.26 69.51 17.84L69.51 17.84L69.51 17.84Q68.84 17.42 68.46 16.71L68.46 16.71L68.46 16.71Q68.08 16.00 68.08 15.18L68.08 15.18L68.08 15.18Q68.08 14.14 68.64 13.16L68.64 13.16L68.64 13.16Q69.20 12.18 70.13 11.57L70.13 11.57L70.13 11.57Q71.05 10.96 72.07 10.96L72.07 10.96ZM71.34 11.84L71.34 11.84Q70.73 11.84 70.25 12.24L70.25 12.24L70.25 12.24Q69.76 12.63 69.49 13.24L69.49 13.24L69.49 13.24Q69.22 13.86 69.22 14.52L69.22 14.52L69.22 14.52Q69.22 15.39 69.62 16.00L69.62 16.00L69.62 16.00Q70.21 15.74 70.90 15.20L70.90 15.20L70.90 15.20Q71.58 14.66 72.06 14.03L72.06 14.03L72.06 14.03Q72.53 13.40 72.53 12.88L72.53 12.88L72.53 12.88Q72.53 11.84 71.34 11.84L71.34 11.84ZM79.14 11.09L79.14 11.09Q79.83 11.09 80.44 11.38L80.44 11.38L80.44 11.38Q81.05 11.68 81.33 12.28L81.33 12.28L80.32 12.82L80.32 12.82Q80.09 12.50 79.70 12.24L79.70 12.24L79.70 12.24Q79.31 11.98 78.86 11.98L78.86 11.98L78.86 11.98Q78.15 11.98 77.62 12.36L77.62 12.36L77.62 12.36Q77.08 12.73 76.80 13.36L76.80 13.36L76.80 13.36Q76.52 13.99 76.52 14.76L76.52 14.76L76.52 14.76Q76.52 15.86 76.90 16.55L76.90 16.55L76.90 16.55Q77.28 17.25 78.09 17.25L78.09 17.25L78.09 17.25Q79.24 17.25 79.67 16.32L79.67 16.32L79.67 16.32Q80.11 15.40 80.11 14.31L80.11 14.31L80.11 13.68L81.34 13.16L81.34 16.84L81.34 16.84Q81.34 17.02 81.44 17.19L81.44 17.19L81.44 17.19Q81.54 17.36 81.73 17.36L81.73 17.36L81.73 17.36Q82.14 17.36 82.47 16.80L82.47 16.80L82.68 17.02L82.68 17.02Q82.52 17.50 82.10 17.83L82.10 17.83L82.10 17.83Q81.68 18.16 81.26 18.16L81.26 18.16L81.26 18.16Q80.65 18.16 80.37 17.71L80.37 17.71L80.37 17.71Q80.08 17.26 80.08 16.52L80.08 16.52L80.05 16.52L80.05 16.52Q79.70 17.26 79.11 17.76L79.11 17.76L79.11 17.76Q78.51 18.26 77.85 18.26L77.85 18.26L77.85 18.26Q76.66 18.26 76.05 17.44L76.05 17.44L76.05 17.44Q75.45 16.62 75.45 15.25L75.45 15.25L75.45 15.25Q75.45 14.15 75.94 13.20L75.94 13.20L75.94 13.20Q76.43 12.24 77.27 11.66L77.27 11.66L77.27 11.66Q78.12 11.09 79.14 11.09L79.14 11.09ZM91.10 10.96L91.10 10.96Q91.52 10.96 91.75 11.24L91.75 11.24L91.75 11.24Q91.98 11.51 91.98 12.15L91.98 12.15L91.98 16.91L91.98 16.91Q91.98 17.12 92.08 17.26L92.08 17.26L92.08 17.26Q92.18 17.39 92.34 17.39L92.34 17.39L92.34 17.39Q92.51 17.39 92.71 17.25L92.71 17.25L92.71 17.25Q92.90 17.11 93.09 16.84L93.09 16.84L93.31 17.05L93.31 17.05Q93.02 17.68 92.61 17.93L92.61 17.93L92.61 17.93Q92.20 18.17 92.46 18.17L92.46 18.17L92.46 18.17Q92.71 18.16 91.85 18.16L91.85 18.16L91.85 18.16Q90.69 18.16 90.69 16.74L90.69 16.74L90.69 12.88L90.69 12.88Q90.69 12.74 90.62 12.64L90.62 12.64L90.62 12.64Q90.55 12.54 90.44 12.54L90.44 12.54L90.44 12.54Q90.13 12.54 89.77 13.22L89.77 13.22L89.77 13.22Q89.40 13.89 89.15 15.11L89.15 15.11L89.15 15.11Q88.90 16.34 88.90 17.92L88.90 17.92L87.63 18.28L87.63 12.88L87.63 12.88Q87.63 12.74 87.56 12.64L87.56 12.64L87.56 12.64Q87.49 12.54 87.39 12.54L87.39 12.54L87.39 12.54Q87.11 12.54 86.74 13.22L86.74 13.22L86.74 13.22Q86.37 13.90 86.09 15.13L86.09 15.13L86.09 15.13Q85.82 16.35 85.82 17.92L85.82 17.92L84.62 18.28L84.62 12.29L84.62 12.29Q84.62 12.05 84.50 11.91L84.50 11.91L84.50 11.91Q84.38 11.77 84.20 11.77L84.20 11.77L84.20 11.77Q83.85 11.77 83.48 12.38L83.48 12.38L83.26 12.15L83.26 12.15Q83.55 11.52 83.96 11.25L83.96 11.25L83.96 11.25Q84.36 10.98 84.45 10.97L84.45 10.97L84.45 10.97Q84.55 10.96 84.73 10.96L84.73 10.96L84.73 10.96Q85.40 10.96 85.64 11.25L85.64 11.25L85.64 11.25Q85.88 11.54 85.88 12.01L85.88 12.01L85.88 14.35L85.92 14.35L85.92 14.35Q86.27 12.82 86.86 11.89L86.86 11.89L86.86 11.89Q87.46 10.96 88.05 10.96L88.05 10.96L88.05 10.96Q88.48 10.96 88.70 11.23L88.70 11.23L88.70 11.23Q88.91 11.49 88.91 12.15L88.91 12.15L88.91 14.35L89.00 14.35L89.00 14.35Q89.35 12.82 89.93 11.89L89.93 11.89L89.93 11.89Q90.51 10.96 91.10 10.96L91.10 10.96ZM96.26 5.15L96.26 16.91L96.26 16.91Q96.26 17.08 96.36 17.23L96.36 17.23L96.36 17.23Q96.46 17.39 96.70 17.39L96.70 17.39L96.70 17.39Q96.89 17.39 97.11 17.21L97.11 17.21L97.11 17.21Q97.33 17.04 97.44 16.84L97.44 16.84L97.68 17.05L97.68 17.05Q97.44 17.51 97.02 17.84L97.02 17.84L97.02 17.84Q96.60 18.16 96.18 18.16L96.18 18.16L96.18 18.16Q95.00 18.16 95.00 16.74L95.00 16.74L95.00 5.68L96.26 5.15ZM102.28 11.09L102.28 11.09Q102.97 11.09 103.58 11.38L103.58 11.38L103.58 11.38Q104.19 11.68 104.47 12.28L104.47 12.28L103.46 12.82L103.46 12.82Q103.24 12.50 102.84 12.24L102.84 12.24L102.84 12.24Q102.45 11.98 102.00 11.98L102.00 11.98L102.00 11.98Q101.29 11.98 100.76 12.36L100.76 12.36L100.76 12.36Q100.23 12.73 99.95 13.36L99.95 13.36L99.95 13.36Q99.67 13.99 99.67 14.76L99.67 14.76L99.67 14.76Q99.67 15.86 100.04 16.55L100.04 16.55L100.04 16.55Q100.42 17.25 101.23 17.25L101.23 17.25L101.23 17.25Q102.38 17.25 102.82 16.32L102.82 16.32L102.82 16.32Q103.25 15.40 103.25 14.31L103.25 14.31L103.25 13.68L104.48 13.16L104.48 16.84L104.48 16.84Q104.48 17.02 104.58 17.19L104.58 17.19L104.58 17.19Q104.68 17.36 104.87 17.36L104.87 17.36L104.87 17.36Q105.28 17.36 105.62 16.80L105.62 16.80L105.83 17.02L105.83 17.02Q105.66 17.50 105.24 17.83L105.24 17.83L105.24 17.83Q104.82 18.16 104.40 18.16L104.40 18.16L104.40 18.16Q103.80 18.16 103.51 17.71L103.51 17.71L103.51 17.71Q103.22 17.26 103.22 16.52L103.22 16.52L103.19 16.52L103.19 16.52Q102.84 17.26 102.25 17.76L102.25 17.76L102.25 17.76Q101.65 18.26 101.00 18.26L101.00 18.26L101.00 18.26Q99.81 18.26 99.20 17.44L99.20 17.44L99.20 17.44Q98.59 16.62 98.59 15.25L98.59 15.25L98.59 15.25Q98.59 14.15 99.08 13.20L99.08 13.20L99.08 13.20Q99.57 12.24 100.41 11.66L100.41 11.66L100.41 11.66Q101.26 11.09 102.28 11.09L102.28 11.09ZM112.01 10.96L112.01 10.96Q112.57 10.96 112.74 11.38L112.74 11.38L112.74 11.38Q112.91 11.79 112.91 12.52L112.91 12.52L112.91 12.95L112.91 16.91L112.91 16.91Q112.91 17.07 113.01 17.23L113.01 17.23L113.01 17.23Q113.11 17.39 113.29 17.39L113.29 17.39L113.29 17.39Q113.53 17.39 113.69 17.23L113.69 17.23L113.69 17.23Q113.86 17.08 114.03 16.84L114.03 16.84L114.24 17.05L114.24 17.05Q114.03 17.50 113.61 17.83L113.61 17.83L113.61 17.83Q113.19 18.16 112.81 18.16L112.81 18.16L112.81 18.16Q112.25 18.16 111.94 17.81L111.94 17.81L111.94 17.81Q111.64 17.46 111.64 16.74L111.64 16.74L111.64 13.03L111.64 13.03Q111.64 12.82 111.59 12.68L111.59 12.68L111.59 12.68Q111.55 12.54 111.38 12.54L111.38 12.54L111.38 12.54Q110.81 12.54 110.21 13.65L110.21 13.65L110.21 13.65Q109.61 14.76 109.18 16.12L109.18 16.12L109.18 16.12Q108.75 17.49 108.75 17.92L108.75 17.92L107.53 18.28L107.53 12.29L107.53 12.29Q107.53 12.10 107.43 11.94L107.43 11.94L107.43 11.94Q107.32 11.77 107.13 11.77L107.13 11.77L107.13 11.77Q106.79 11.77 106.40 12.38L106.40 12.38L106.19 12.15L106.19 12.15Q106.37 11.65 106.79 11.30L106.79 11.30L106.79 11.30Q107.21 10.96 107.63 10.96L107.63 10.96L107.63 10.96Q108.22 10.96 108.51 11.24L108.51 11.24L108.51 11.24Q108.79 11.52 108.79 12.01L108.79 12.01L108.79 15.69L108.85 15.69L108.85 15.69Q109.23 14.45 109.58 13.52L109.58 13.52L109.58 13.52Q109.93 12.60 110.56 11.78L110.56 11.78L110.56 11.78Q111.19 10.96 112.01 10.96L112.01 10.96ZM121.13 5.15L121.13 16.84L121.13 16.84Q121.13 17.04 121.22 17.20L121.22 17.20L121.22 17.20Q121.31 17.36 121.51 17.36L121.51 17.36L121.51 17.36Q121.70 17.36 121.90 17.19L121.90 17.19L121.90 17.19Q122.09 17.01 122.19 16.80L122.19 16.80L122.46 17.02L122.46 17.02Q122.23 17.50 121.82 17.83L121.82 17.83L121.82 17.83Q121.41 18.16 121.02 18.16L121.02 18.16L121.02 18.16Q120.37 18.16 120.08 17.79L120.08 17.79L120.08 17.79Q119.78 17.43 119.80 16.53L119.80 16.53L119.74 16.53L119.74 16.53Q118.89 18.26 117.66 18.26L117.66 18.26L117.66 18.26Q116.44 18.26 115.79 17.41L115.79 17.41L115.79 17.41Q115.14 16.56 115.14 15.29L115.14 15.29L115.14 15.29Q115.14 14.28 115.57 13.29L115.57 13.29L115.57 13.29Q116.00 12.29 116.81 11.65L116.81 11.65L116.81 11.65Q117.61 11.00 118.66 11.00L118.66 11.00L118.66 11.00Q119.32 11.00 119.81 11.34L119.81 11.34L119.81 5.68L121.13 5.15ZM118.58 11.83L118.58 11.83Q117.80 11.83 117.28 12.32L117.28 12.32L117.28 12.32Q116.77 12.81 116.54 13.50L116.54 13.50L116.54 13.50Q116.30 14.20 116.30 14.80L116.30 14.80L116.30 14.80Q116.30 15.27 116.47 15.85L116.47 15.85L116.47 15.85Q116.63 16.42 117.01 16.84L117.01 16.84L117.01 16.84Q117.39 17.25 117.98 17.25L117.98 17.25L117.98 17.25Q119.04 17.25 119.43 16.33L119.43 16.33L119.43 16.33Q119.81 15.41 119.81 14.31L119.81 14.31L119.81 12.39L119.81 12.39Q119.57 12.14 119.26 11.98L119.26 11.98L119.26 11.98Q118.94 11.83 118.58 11.83L118.58 11.83Z"></path></g><!----><!----></svg>